<?xml version="1.0" encoding="windows-1252"?>
<!-- Wikimedia Commons, User:Sven. Hand edited. :)-->
<!DOCTYPE svg PUBLIC "-//W3C//DTD SVG 1.1//EN" "http://www.w3.org/Graphics/SVG/1.1/DTD/svg11.dtd">
<svg width="469.157pt" height="72.905pt" viewBox="0 0 469.157 72.905" xmlns="http://www.w3.org/2000/svg">

	<g style="fill:#FFFFFF;stroke:#3B80AE;stroke-width:2.4588;">
		<g>
			<path style="stroke:#BABABA;" d="M85.277,40.796c2.058,7.884-2.667,15.942-10.551,17.999L27.143,71.21c-7.884,2.057-15.943-2.667-18-10.552l-7.448-28.55c-2.057-7.884,2.667-15.942,10.551-17.999L59.83,1.695c7.884-2.057,15.942,2.667,17.999,10.551l7.449,28.55z"/>
			<path style="fill:#3B80AE;stroke:none;" d="M80.444,39.778c1.749,7.854-1.816,13.621-9.504,15.447l-42.236,11.02c-7.569,2.396-14.089-1.181-15.838-8.836L6.53,33.127c-1.749-8.145,0.709-12.889,9.503-15.447L58.27,6.661c8.144-1.826,14.089,1.363,15.838,8.835l6.336,24.282z"/>
		</g>
		<path style="opacity:0.5;fill:none;stroke:#FFFFFF;" d="M45.542,51.793L24.104,31.102l38.1-4.393L45.542,51.793z"/>
		<path d="M72.325,28.769c0.405,1.55-0.525,3.136-2.075,3.541l-12.331,3.217c-1.551,0.404-3.137-0.525-3.542-2.076l-2.295-8.801c-0.405-1.551,0.524-3.137,2.076-3.542l12.33-3.217c1.551-0.405,3.137,0.525,3.542,2.076l2.295,8.801z"/>
		<path d="M36.51,33.625c0.496,1.9-0.645,3.844-2.545,4.34l-15.112,3.943c-1.901,0.496-3.845-0.644-4.34-2.544l-2.814-10.786c-0.496-1.901,0.644-3.844,2.544-4.34l15.113-3.942c1.901-0.496,3.845,0.643,4.34,2.544l2.814,10.786z"/>
		<path d="M52.493,53.208c0.278,1.065-0.36,2.154-1.425,2.432L42.6,57.848c-1.064,0.277-2.153-0.36-2.431-1.426l-1.577-6.043c-0.277-1.064,0.36-2.153,1.425-2.432l8.468-2.209c1.064-0.277,2.154,0.361,2.431,1.426l1.577,6.043z"/>
	</g>
</svg>