<svg xmlns="http://www.w3.org/2000/svg" viewBox="0 0 400 400">
  <!-- Outer ring -->
  <circle cx="200" cy="200" r="180" fill="none" stroke="#C0A060" stroke-width="8"/>
  <circle cx="200" cy="200" r="170" fill="none" stroke="#C0A060" stroke-width="4"/>
  
  <!-- Decorative patterns around the ring -->
  <path d="M200,30 A170,170 0 0,1 370,200" fill="none" stroke="#C0A060" stroke-width="2" stroke-dasharray="15,10"/>
  <path d="M200,370 A170,170 0 0,1 30,200" fill="none" stroke="#C0A060" stroke-width="2" stroke-dasharray="15,10"/>
  
  <!-- Inner circle representing project unity -->
  <circle cx="200" cy="200" r="150" fill="#2C3E50"/>
  
  <!-- Central icon - stylized "IPRM" text -->
  <g transform="translate(200,200)">
    <!-- Vertical line of "I" -->
    <rect x="-80" y="-40" width="12" height="80" fill="#C0A060"/>
    
    <!-- "P" shape -->
    <path d="M-60,-40 h20 a20,20 0 0,1 20,20 a20,20 0 0,1 -20,20 h-20 v-40 z" fill="#C0A060"/>
    
    <!-- "R" shape -->
    <path d="M0,-40 h30 a20,20 0 0,1 20,20 a20,20 0 0,1 -20,20 h-10 l25,40 h-15 l-25,-40 h-5 v40 h-12 v-80 h12 z" fill="#C0A060"/>
    
    <!-- "M" shape -->
    <path d="M50,-40 h12 l20,60 l20,-60 h12 v80 h-12 v-50 l-15,45 h-10 l-15,-45 v50 h-12 z" fill="#C0A060"/>
  </g>
</svg>
