<?xml version="1.0" encoding="utf-8" standalone="no"?>
<!DOCTYPE svg PUBLIC "-//W3C//DTD SVG 1.1//EN"
  "http://www.w3.org/Graphics/SVG/1.1/DTD/svg11.dtd">
<svg xmlns:xlink="http://www.w3.org/1999/xlink" width="333.35568pt" height="333.35568pt" viewBox="0 0 333.35568 333.35568" xmlns="http://www.w3.org/2000/svg" version="1.1">
 <metadata>
  <rdf:RDF xmlns:dc="http://purl.org/dc/elements/1.1/" xmlns:cc="http://creativecommons.org/ns#" xmlns:rdf="http://www.w3.org/1999/02/22-rdf-syntax-ns#">
   <cc:Work>
    <dc:type rdf:resource="http://purl.org/dc/dcmitype/StillImage"/>
    <dc:date>2024-10-06T13:47:20.363081</dc:date>
    <dc:format>image/svg+xml</dc:format>
    <dc:creator>
     <cc:Agent>
      <dc:title>Matplotlib v3.8.4, https://matplotlib.org/</dc:title>
     </cc:Agent>
    </dc:creator>
   </cc:Work>
  </rdf:RDF>
 </metadata>
 <defs>
  <style type="text/css">*{stroke-linejoin: round; stroke-linecap: butt}</style>
 </defs>
 <g id="figure_1">
  <g id="patch_1">
   <path d="M 0 333.35568 
L 333.35568 333.35568 
L 333.35568 0 
L 0 0 
L 0 333.35568 
z
" style="fill: none"/>
  </g>
  <g id="axes_1">
   <g id="patch_2">
    <path d="M 150.010056 283.352328 
L 300.020112 283.352328 
L 300.020112 6.667114 
L 150.010056 6.667114 
L 150.010056 283.352328 
z
" style="fill: none"/>
   </g>
   <g id="PolyCollection_1">
    <path d="M 225.015084 270.775727 
L 225.015084 259.839553 
L 225.015084 259.839553 
L 225.015084 270.775727 
z
" clip-path="url(#pba08dd8255)" style="fill: #d34249"/>
   </g>
   <g id="PolyCollection_2">
    <path d="M 225.015084 237.967204 
L 225.015084 227.031029 
L 225.015084 227.031029 
L 225.015084 237.967204 
z
" clip-path="url(#pba08dd8255)" style="fill: #d34249"/>
   </g>
   <g id="PolyCollection_3">
    <path d="M 225.015084 205.15868 
L 225.015084 194.222506 
L 226.546248 194.222506 
L 226.546248 205.15868 
z
" clip-path="url(#pba08dd8255)" style="fill: #d34249"/>
   </g>
   <g id="PolyCollection_4">
    <path d="M 225.015084 172.350157 
L 225.015084 161.413983 
L 223.632862 161.413983 
L 223.632862 172.350157 
z
" clip-path="url(#pba08dd8255)" style="fill: #d34249"/>
   </g>
   <g id="PolyCollection_5">
    <path d="M 225.015084 139.541634 
L 225.015084 128.605459 
L 225.015084 128.605459 
L 225.015084 139.541634 
z
" clip-path="url(#pba08dd8255)" style="fill: #d34249"/>
   </g>
   <g id="PolyCollection_6">
    <path d="M 225.015084 106.73311 
L 225.015084 95.796936 
L 204.36537 95.796936 
L 204.36537 106.73311 
z
" clip-path="url(#pba08dd8255)" style="fill: #d34249"/>
   </g>
   <g id="PolyCollection_7">
    <path d="M 225.015084 73.924587 
L 225.015084 62.988412 
L 225.015084 62.988412 
L 225.015084 73.924587 
z
" clip-path="url(#pba08dd8255)" style="fill: #d34249"/>
   </g>
   <g id="PolyCollection_8">
    <path d="M 225.015084 41.116063 
L 225.015084 30.179889 
L 154.834164 30.179889 
L 154.834164 41.116063 
z
" clip-path="url(#pba08dd8255)" style="fill: #d34249"/>
   </g>
   <g id="PolyCollection_9">
    <path d="M 225.015084 259.839553 
L 225.015084 248.903378 
L 221.59946 248.903378 
L 221.59946 259.839553 
z
" clip-path="url(#pba08dd8255)" style="fill: #0c72b9"/>
   </g>
   <g id="PolyCollection_10">
    <path d="M 225.015084 227.031029 
L 225.015084 216.094855 
L 221.57817 216.094855 
L 221.57817 227.031029 
z
" clip-path="url(#pba08dd8255)" style="fill: #0c72b9"/>
   </g>
   <g id="PolyCollection_11">
    <path d="M 225.015084 194.222506 
L 225.015084 183.286331 
L 221.424076 183.286331 
L 221.424076 194.222506 
z
" clip-path="url(#pba08dd8255)" style="fill: #0c72b9"/>
   </g>
   <g id="PolyCollection_12">
    <path d="M 225.015084 161.413983 
L 225.015084 150.477808 
L 220.567035 150.477808 
L 220.567035 161.413983 
z
" clip-path="url(#pba08dd8255)" style="fill: #0c72b9"/>
   </g>
   <g id="PolyCollection_13">
    <path d="M 225.015084 128.605459 
L 225.015084 117.669285 
L 232.512558 117.669285 
L 232.512558 128.605459 
z
" clip-path="url(#pba08dd8255)" style="fill: #0c72b9"/>
   </g>
   <g id="PolyCollection_14">
    <path d="M 225.015084 95.796936 
L 225.015084 84.860761 
L 209.080033 84.860761 
L 209.080033 95.796936 
z
" clip-path="url(#pba08dd8255)" style="fill: #0c72b9"/>
   </g>
   <g id="PolyCollection_15">
    <path d="M 225.015084 62.988412 
L 225.015084 52.052238 
L 196.081734 52.052238 
L 196.081734 62.988412 
z
" clip-path="url(#pba08dd8255)" style="fill: #0c72b9"/>
   </g>
   <g id="PolyCollection_16">
    <path d="M 225.015084 30.179889 
L 225.015084 19.243714 
L 162.910211 19.243714 
L 162.910211 30.179889 
z
" clip-path="url(#pba08dd8255)" style="fill: #0c72b9"/>
   </g>
   <g id="matplotlib.axis_1">
    <g id="xtick_1">
     <g id="line2d_1">
      <defs>
       <path id="m9035f36098" d="M 0 2 
L 0 -2 
" style="stroke: #000000; stroke-width: 0.8"/>
      </defs>
      <g>
       <use xlink:href="#m9035f36098" x="150.010056" y="283.352328" style="stroke: #000000; stroke-width: 0.8"/>
      </g>
     </g>
     <g id="text_1">
      <!-- -1.00 -->
      <g transform="translate(136.335681 297.441703) scale(0.12 -0.12)">
       <defs>
        <path id="ArialMT-2d" d="M 203 1375 
L 203 1941 
L 1931 1941 
L 1931 1375 
L 203 1375 
z
" transform="scale(0.015625)"/>
        <path id="ArialMT-31" d="M 2384 0 
L 1822 0 
L 1822 3584 
Q 1619 3391 1289 3197 
Q 959 3003 697 2906 
L 697 3450 
Q 1169 3672 1522 3987 
Q 1875 4303 2022 4600 
L 2384 4600 
L 2384 0 
z
" transform="scale(0.015625)"/>
        <path id="ArialMT-2e" d="M 581 0 
L 581 641 
L 1222 641 
L 1222 0 
L 581 0 
z
" transform="scale(0.015625)"/>
        <path id="ArialMT-30" d="M 266 2259 
Q 266 3072 433 3567 
Q 600 4063 929 4331 
Q 1259 4600 1759 4600 
Q 2128 4600 2406 4451 
Q 2684 4303 2865 4023 
Q 3047 3744 3150 3342 
Q 3253 2941 3253 2259 
Q 3253 1453 3087 958 
Q 2922 463 2592 192 
Q 2263 -78 1759 -78 
Q 1097 -78 719 397 
Q 266 969 266 2259 
z
M 844 2259 
Q 844 1131 1108 757 
Q 1372 384 1759 384 
Q 2147 384 2411 759 
Q 2675 1134 2675 2259 
Q 2675 3391 2411 3762 
Q 2147 4134 1753 4134 
Q 1366 4134 1134 3806 
Q 844 3388 844 2259 
z
" transform="scale(0.015625)"/>
       </defs>
       <use xlink:href="#ArialMT-2d"/>
       <use xlink:href="#ArialMT-31" x="33.300781"/>
       <use xlink:href="#ArialMT-2e" x="88.916016"/>
       <use xlink:href="#ArialMT-30" x="116.699219"/>
       <use xlink:href="#ArialMT-30" x="172.314453"/>
      </g>
     </g>
    </g>
    <g id="xtick_2">
     <g id="line2d_2">
      <g>
       <use xlink:href="#m9035f36098" x="187.51257" y="283.352328" style="stroke: #000000; stroke-width: 0.8"/>
      </g>
     </g>
     <g id="text_2">
      <!-- -0.50 -->
      <g transform="translate(173.838195 297.441703) scale(0.12 -0.12)">
       <defs>
        <path id="ArialMT-35" d="M 266 1200 
L 856 1250 
Q 922 819 1161 601 
Q 1400 384 1738 384 
Q 2144 384 2425 690 
Q 2706 997 2706 1503 
Q 2706 1984 2436 2262 
Q 2166 2541 1728 2541 
Q 1456 2541 1237 2417 
Q 1019 2294 894 2097 
L 366 2166 
L 809 4519 
L 3088 4519 
L 3088 3981 
L 1259 3981 
L 1013 2750 
Q 1425 3038 1878 3038 
Q 2478 3038 2890 2622 
Q 3303 2206 3303 1553 
Q 3303 931 2941 478 
Q 2500 -78 1738 -78 
Q 1113 -78 717 272 
Q 322 622 266 1200 
z
" transform="scale(0.015625)"/>
       </defs>
       <use xlink:href="#ArialMT-2d"/>
       <use xlink:href="#ArialMT-30" x="33.300781"/>
       <use xlink:href="#ArialMT-2e" x="88.916016"/>
       <use xlink:href="#ArialMT-35" x="116.699219"/>
       <use xlink:href="#ArialMT-30" x="172.314453"/>
      </g>
     </g>
    </g>
    <g id="xtick_3">
     <g id="line2d_3">
      <g>
       <use xlink:href="#m9035f36098" x="225.015084" y="283.352328" style="stroke: #000000; stroke-width: 0.8"/>
      </g>
     </g>
     <g id="text_3">
      <!-- 0.00 -->
      <g transform="translate(213.338522 297.441703) scale(0.12 -0.12)">
       <use xlink:href="#ArialMT-30"/>
       <use xlink:href="#ArialMT-2e" x="55.615234"/>
       <use xlink:href="#ArialMT-30" x="83.398438"/>
       <use xlink:href="#ArialMT-30" x="139.013672"/>
      </g>
     </g>
    </g>
    <g id="xtick_4">
     <g id="line2d_4">
      <g>
       <use xlink:href="#m9035f36098" x="262.517598" y="283.352328" style="stroke: #000000; stroke-width: 0.8"/>
      </g>
     </g>
     <g id="text_4">
      <!-- 0.50 -->
      <g transform="translate(250.841036 297.441703) scale(0.12 -0.12)">
       <use xlink:href="#ArialMT-30"/>
       <use xlink:href="#ArialMT-2e" x="55.615234"/>
       <use xlink:href="#ArialMT-35" x="83.398438"/>
       <use xlink:href="#ArialMT-30" x="139.013672"/>
      </g>
     </g>
    </g>
    <g id="xtick_5">
     <g id="line2d_5">
      <g>
       <use xlink:href="#m9035f36098" x="300.020112" y="283.352328" style="stroke: #000000; stroke-width: 0.8"/>
      </g>
     </g>
     <g id="text_5">
      <!-- 1.00 -->
      <g transform="translate(288.343549 297.441703) scale(0.12 -0.12)">
       <use xlink:href="#ArialMT-31"/>
       <use xlink:href="#ArialMT-2e" x="55.615234"/>
       <use xlink:href="#ArialMT-30" x="83.398438"/>
       <use xlink:href="#ArialMT-30" x="139.013672"/>
      </g>
     </g>
    </g>
    <g id="xtick_6">
     <g id="line2d_6">
      <defs>
       <path id="m79feeb4551" d="M 0 2 
L 0 -2 
" style="stroke: #000000; stroke-width: 0.6"/>
      </defs>
      <g>
       <use xlink:href="#m79feeb4551" x="168.761313" y="283.352328" style="stroke: #000000; stroke-width: 0.6"/>
      </g>
     </g>
    </g>
    <g id="xtick_7">
     <g id="line2d_7">
      <g>
       <use xlink:href="#m79feeb4551" x="206.263827" y="283.352328" style="stroke: #000000; stroke-width: 0.6"/>
      </g>
     </g>
    </g>
    <g id="xtick_8">
     <g id="line2d_8">
      <g>
       <use xlink:href="#m79feeb4551" x="243.766341" y="283.352328" style="stroke: #000000; stroke-width: 0.6"/>
      </g>
     </g>
    </g>
    <g id="xtick_9">
     <g id="line2d_9">
      <g>
       <use xlink:href="#m79feeb4551" x="281.268855" y="283.352328" style="stroke: #000000; stroke-width: 0.6"/>
      </g>
     </g>
    </g>
    <g id="text_6">
     <!-- Spearman's rank correlation coefficient -->
     <g transform="translate(121.597584 312.562328) scale(0.12 -0.12)">
      <defs>
       <path id="ArialMT-53" d="M 288 1472 
L 859 1522 
Q 900 1178 1048 958 
Q 1197 738 1509 602 
Q 1822 466 2213 466 
Q 2559 466 2825 569 
Q 3091 672 3220 851 
Q 3350 1031 3350 1244 
Q 3350 1459 3225 1620 
Q 3100 1781 2813 1891 
Q 2628 1963 1997 2114 
Q 1366 2266 1113 2400 
Q 784 2572 623 2826 
Q 463 3081 463 3397 
Q 463 3744 659 4045 
Q 856 4347 1234 4503 
Q 1613 4659 2075 4659 
Q 2584 4659 2973 4495 
Q 3363 4331 3572 4012 
Q 3781 3694 3797 3291 
L 3216 3247 
Q 3169 3681 2898 3903 
Q 2628 4125 2100 4125 
Q 1550 4125 1298 3923 
Q 1047 3722 1047 3438 
Q 1047 3191 1225 3031 
Q 1400 2872 2139 2705 
Q 2878 2538 3153 2413 
Q 3553 2228 3743 1945 
Q 3934 1663 3934 1294 
Q 3934 928 3725 604 
Q 3516 281 3123 101 
Q 2731 -78 2241 -78 
Q 1619 -78 1198 103 
Q 778 284 539 648 
Q 300 1013 288 1472 
z
" transform="scale(0.015625)"/>
       <path id="ArialMT-70" d="M 422 -1272 
L 422 3319 
L 934 3319 
L 934 2888 
Q 1116 3141 1344 3267 
Q 1572 3394 1897 3394 
Q 2322 3394 2647 3175 
Q 2972 2956 3137 2557 
Q 3303 2159 3303 1684 
Q 3303 1175 3120 767 
Q 2938 359 2589 142 
Q 2241 -75 1856 -75 
Q 1575 -75 1351 44 
Q 1128 163 984 344 
L 984 -1272 
L 422 -1272 
z
M 931 1641 
Q 931 1000 1190 694 
Q 1450 388 1819 388 
Q 2194 388 2461 705 
Q 2728 1022 2728 1688 
Q 2728 2322 2467 2637 
Q 2206 2953 1844 2953 
Q 1484 2953 1207 2617 
Q 931 2281 931 1641 
z
" transform="scale(0.015625)"/>
       <path id="ArialMT-65" d="M 2694 1069 
L 3275 997 
Q 3138 488 2766 206 
Q 2394 -75 1816 -75 
Q 1088 -75 661 373 
Q 234 822 234 1631 
Q 234 2469 665 2931 
Q 1097 3394 1784 3394 
Q 2450 3394 2872 2941 
Q 3294 2488 3294 1666 
Q 3294 1616 3291 1516 
L 816 1516 
Q 847 969 1125 678 
Q 1403 388 1819 388 
Q 2128 388 2347 550 
Q 2566 713 2694 1069 
z
M 847 1978 
L 2700 1978 
Q 2663 2397 2488 2606 
Q 2219 2931 1791 2931 
Q 1403 2931 1139 2672 
Q 875 2413 847 1978 
z
" transform="scale(0.015625)"/>
       <path id="ArialMT-61" d="M 2588 409 
Q 2275 144 1986 34 
Q 1697 -75 1366 -75 
Q 819 -75 525 192 
Q 231 459 231 875 
Q 231 1119 342 1320 
Q 453 1522 633 1644 
Q 813 1766 1038 1828 
Q 1203 1872 1538 1913 
Q 2219 1994 2541 2106 
Q 2544 2222 2544 2253 
Q 2544 2597 2384 2738 
Q 2169 2928 1744 2928 
Q 1347 2928 1158 2789 
Q 969 2650 878 2297 
L 328 2372 
Q 403 2725 575 2942 
Q 747 3159 1072 3276 
Q 1397 3394 1825 3394 
Q 2250 3394 2515 3294 
Q 2781 3194 2906 3042 
Q 3031 2891 3081 2659 
Q 3109 2516 3109 2141 
L 3109 1391 
Q 3109 606 3145 398 
Q 3181 191 3288 0 
L 2700 0 
Q 2613 175 2588 409 
z
M 2541 1666 
Q 2234 1541 1622 1453 
Q 1275 1403 1131 1340 
Q 988 1278 909 1158 
Q 831 1038 831 891 
Q 831 666 1001 516 
Q 1172 366 1500 366 
Q 1825 366 2078 508 
Q 2331 650 2450 897 
Q 2541 1088 2541 1459 
L 2541 1666 
z
" transform="scale(0.015625)"/>
       <path id="ArialMT-72" d="M 416 0 
L 416 3319 
L 922 3319 
L 922 2816 
Q 1116 3169 1280 3281 
Q 1444 3394 1641 3394 
Q 1925 3394 2219 3213 
L 2025 2691 
Q 1819 2813 1613 2813 
Q 1428 2813 1281 2702 
Q 1134 2591 1072 2394 
Q 978 2094 978 1738 
L 978 0 
L 416 0 
z
" transform="scale(0.015625)"/>
       <path id="ArialMT-6d" d="M 422 0 
L 422 3319 
L 925 3319 
L 925 2853 
Q 1081 3097 1340 3245 
Q 1600 3394 1931 3394 
Q 2300 3394 2536 3241 
Q 2772 3088 2869 2813 
Q 3263 3394 3894 3394 
Q 4388 3394 4653 3120 
Q 4919 2847 4919 2278 
L 4919 0 
L 4359 0 
L 4359 2091 
Q 4359 2428 4304 2576 
Q 4250 2725 4106 2815 
Q 3963 2906 3769 2906 
Q 3419 2906 3187 2673 
Q 2956 2441 2956 1928 
L 2956 0 
L 2394 0 
L 2394 2156 
Q 2394 2531 2256 2718 
Q 2119 2906 1806 2906 
Q 1569 2906 1367 2781 
Q 1166 2656 1075 2415 
Q 984 2175 984 1722 
L 984 0 
L 422 0 
z
" transform="scale(0.015625)"/>
       <path id="ArialMT-6e" d="M 422 0 
L 422 3319 
L 928 3319 
L 928 2847 
Q 1294 3394 1984 3394 
Q 2284 3394 2536 3286 
Q 2788 3178 2913 3003 
Q 3038 2828 3088 2588 
Q 3119 2431 3119 2041 
L 3119 0 
L 2556 0 
L 2556 2019 
Q 2556 2363 2490 2533 
Q 2425 2703 2258 2804 
Q 2091 2906 1866 2906 
Q 1506 2906 1245 2678 
Q 984 2450 984 1813 
L 984 0 
L 422 0 
z
" transform="scale(0.015625)"/>
       <path id="ArialMT-27" d="M 425 2959 
L 281 3816 
L 281 4581 
L 922 4581 
L 922 3816 
L 772 2959 
L 425 2959 
z
" transform="scale(0.015625)"/>
       <path id="ArialMT-73" d="M 197 991 
L 753 1078 
Q 800 744 1014 566 
Q 1228 388 1613 388 
Q 2000 388 2187 545 
Q 2375 703 2375 916 
Q 2375 1106 2209 1216 
Q 2094 1291 1634 1406 
Q 1016 1563 777 1677 
Q 538 1791 414 1992 
Q 291 2194 291 2438 
Q 291 2659 392 2848 
Q 494 3038 669 3163 
Q 800 3259 1026 3326 
Q 1253 3394 1513 3394 
Q 1903 3394 2198 3281 
Q 2494 3169 2634 2976 
Q 2775 2784 2828 2463 
L 2278 2388 
Q 2241 2644 2061 2787 
Q 1881 2931 1553 2931 
Q 1166 2931 1000 2803 
Q 834 2675 834 2503 
Q 834 2394 903 2306 
Q 972 2216 1119 2156 
Q 1203 2125 1616 2013 
Q 2213 1853 2448 1751 
Q 2684 1650 2818 1456 
Q 2953 1263 2953 975 
Q 2953 694 2789 445 
Q 2625 197 2315 61 
Q 2006 -75 1616 -75 
Q 969 -75 630 194 
Q 291 463 197 991 
z
" transform="scale(0.015625)"/>
       <path id="ArialMT-20" transform="scale(0.015625)"/>
       <path id="ArialMT-6b" d="M 425 0 
L 425 4581 
L 988 4581 
L 988 1969 
L 2319 3319 
L 3047 3319 
L 1778 2088 
L 3175 0 
L 2481 0 
L 1384 1697 
L 988 1316 
L 988 0 
L 425 0 
z
" transform="scale(0.015625)"/>
       <path id="ArialMT-63" d="M 2588 1216 
L 3141 1144 
Q 3050 572 2676 248 
Q 2303 -75 1759 -75 
Q 1078 -75 664 370 
Q 250 816 250 1647 
Q 250 2184 428 2587 
Q 606 2991 970 3192 
Q 1334 3394 1763 3394 
Q 2303 3394 2647 3120 
Q 2991 2847 3088 2344 
L 2541 2259 
Q 2463 2594 2264 2762 
Q 2066 2931 1784 2931 
Q 1359 2931 1093 2626 
Q 828 2322 828 1663 
Q 828 994 1084 691 
Q 1341 388 1753 388 
Q 2084 388 2306 591 
Q 2528 794 2588 1216 
z
" transform="scale(0.015625)"/>
       <path id="ArialMT-6f" d="M 213 1659 
Q 213 2581 725 3025 
Q 1153 3394 1769 3394 
Q 2453 3394 2887 2945 
Q 3322 2497 3322 1706 
Q 3322 1066 3130 698 
Q 2938 331 2570 128 
Q 2203 -75 1769 -75 
Q 1072 -75 642 372 
Q 213 819 213 1659 
z
M 791 1659 
Q 791 1022 1069 705 
Q 1347 388 1769 388 
Q 2188 388 2466 706 
Q 2744 1025 2744 1678 
Q 2744 2294 2464 2611 
Q 2184 2928 1769 2928 
Q 1347 2928 1069 2612 
Q 791 2297 791 1659 
z
" transform="scale(0.015625)"/>
       <path id="ArialMT-6c" d="M 409 0 
L 409 4581 
L 972 4581 
L 972 0 
L 409 0 
z
" transform="scale(0.015625)"/>
       <path id="ArialMT-74" d="M 1650 503 
L 1731 6 
Q 1494 -44 1306 -44 
Q 1000 -44 831 53 
Q 663 150 594 308 
Q 525 466 525 972 
L 525 2881 
L 113 2881 
L 113 3319 
L 525 3319 
L 525 4141 
L 1084 4478 
L 1084 3319 
L 1650 3319 
L 1650 2881 
L 1084 2881 
L 1084 941 
Q 1084 700 1114 631 
Q 1144 563 1211 522 
Q 1278 481 1403 481 
Q 1497 481 1650 503 
z
" transform="scale(0.015625)"/>
       <path id="ArialMT-69" d="M 425 3934 
L 425 4581 
L 988 4581 
L 988 3934 
L 425 3934 
z
M 425 0 
L 425 3319 
L 988 3319 
L 988 0 
L 425 0 
z
" transform="scale(0.015625)"/>
       <path id="ArialMT-66" d="M 556 0 
L 556 2881 
L 59 2881 
L 59 3319 
L 556 3319 
L 556 3672 
Q 556 4006 616 4169 
Q 697 4388 901 4523 
Q 1106 4659 1475 4659 
Q 1713 4659 2000 4603 
L 1916 4113 
Q 1741 4144 1584 4144 
Q 1328 4144 1222 4034 
Q 1116 3925 1116 3625 
L 1116 3319 
L 1763 3319 
L 1763 2881 
L 1116 2881 
L 1116 0 
L 556 0 
z
" transform="scale(0.015625)"/>
      </defs>
      <use xlink:href="#ArialMT-53"/>
      <use xlink:href="#ArialMT-70" x="66.699219"/>
      <use xlink:href="#ArialMT-65" x="122.314453"/>
      <use xlink:href="#ArialMT-61" x="177.929688"/>
      <use xlink:href="#ArialMT-72" x="233.544922"/>
      <use xlink:href="#ArialMT-6d" x="266.845703"/>
      <use xlink:href="#ArialMT-61" x="350.146484"/>
      <use xlink:href="#ArialMT-6e" x="405.761719"/>
      <use xlink:href="#ArialMT-27" x="461.376953"/>
      <use xlink:href="#ArialMT-73" x="480.46875"/>
      <use xlink:href="#ArialMT-20" x="530.46875"/>
      <use xlink:href="#ArialMT-72" x="558.251953"/>
      <use xlink:href="#ArialMT-61" x="591.552734"/>
      <use xlink:href="#ArialMT-6e" x="647.167969"/>
      <use xlink:href="#ArialMT-6b" x="702.783203"/>
      <use xlink:href="#ArialMT-20" x="752.783203"/>
      <use xlink:href="#ArialMT-63" x="780.566406"/>
      <use xlink:href="#ArialMT-6f" x="830.566406"/>
      <use xlink:href="#ArialMT-72" x="886.181641"/>
      <use xlink:href="#ArialMT-72" x="919.482422"/>
      <use xlink:href="#ArialMT-65" x="952.783203"/>
      <use xlink:href="#ArialMT-6c" x="1008.398438"/>
      <use xlink:href="#ArialMT-61" x="1030.615234"/>
      <use xlink:href="#ArialMT-74" x="1086.230469"/>
      <use xlink:href="#ArialMT-69" x="1114.013672"/>
      <use xlink:href="#ArialMT-6f" x="1136.230469"/>
      <use xlink:href="#ArialMT-6e" x="1191.845703"/>
      <use xlink:href="#ArialMT-20" x="1247.460938"/>
      <use xlink:href="#ArialMT-63" x="1275.244141"/>
      <use xlink:href="#ArialMT-6f" x="1325.244141"/>
      <use xlink:href="#ArialMT-65" x="1380.859375"/>
      <use xlink:href="#ArialMT-66" x="1436.474609"/>
      <use xlink:href="#ArialMT-66" x="1462.507812"/>
      <use xlink:href="#ArialMT-69" x="1490.291016"/>
      <use xlink:href="#ArialMT-63" x="1512.507812"/>
      <use xlink:href="#ArialMT-69" x="1562.507812"/>
      <use xlink:href="#ArialMT-65" x="1584.724609"/>
      <use xlink:href="#ArialMT-6e" x="1640.339844"/>
      <use xlink:href="#ArialMT-74" x="1695.955078"/>
     </g>
    </g>
   </g>
   <g id="matplotlib.axis_2">
    <g id="ytick_1">
     <g id="line2d_10">
      <defs>
       <path id="m7bc4ab9f88" d="M 2 0 
L -2 -0 
" style="stroke: #000000; stroke-width: 0.8"/>
      </defs>
      <g>
       <use xlink:href="#m7bc4ab9f88" x="150.010056" y="259.839553" style="stroke: #000000; stroke-width: 0.8"/>
      </g>
     </g>
     <g id="text_7">
      <!-- Hexane price -->
      <g transform="translate(73.809431 257.54174) scale(0.12 -0.12)">
       <defs>
        <path id="ArialMT-48" d="M 513 0 
L 513 4581 
L 1119 4581 
L 1119 2700 
L 3500 2700 
L 3500 4581 
L 4106 4581 
L 4106 0 
L 3500 0 
L 3500 2159 
L 1119 2159 
L 1119 0 
L 513 0 
z
" transform="scale(0.015625)"/>
        <path id="ArialMT-78" d="M 47 0 
L 1259 1725 
L 138 3319 
L 841 3319 
L 1350 2541 
Q 1494 2319 1581 2169 
Q 1719 2375 1834 2534 
L 2394 3319 
L 3066 3319 
L 1919 1756 
L 3153 0 
L 2463 0 
L 1781 1031 
L 1600 1309 
L 728 0 
L 47 0 
z
" transform="scale(0.015625)"/>
       </defs>
       <use xlink:href="#ArialMT-48"/>
       <use xlink:href="#ArialMT-65" x="72.216797"/>
       <use xlink:href="#ArialMT-78" x="127.832031"/>
       <use xlink:href="#ArialMT-61" x="177.832031"/>
       <use xlink:href="#ArialMT-6e" x="233.447266"/>
       <use xlink:href="#ArialMT-65" x="289.0625"/>
       <use xlink:href="#ArialMT-20" x="344.677734"/>
       <use xlink:href="#ArialMT-70" x="372.460938"/>
       <use xlink:href="#ArialMT-72" x="428.076172"/>
       <use xlink:href="#ArialMT-69" x="461.376953"/>
       <use xlink:href="#ArialMT-63" x="483.59375"/>
       <use xlink:href="#ArialMT-65" x="533.59375"/>
      </g>
      <!-- [0.584 $-$ 0.876 $\mathrm{USD} \cdot \mathrm{kg}^{-1}$] -->
      <g transform="translate(-3.809944 272.88674) scale(0.12 -0.12)">
       <defs>
        <path id="ArialMT-5b" d="M 434 -1272 
L 434 4581 
L 1675 4581 
L 1675 4116 
L 997 4116 
L 997 -806 
L 1675 -806 
L 1675 -1272 
L 434 -1272 
z
" transform="scale(0.015625)"/>
        <path id="ArialMT-38" d="M 1131 2484 
Q 781 2613 612 2850 
Q 444 3088 444 3419 
Q 444 3919 803 4259 
Q 1163 4600 1759 4600 
Q 2359 4600 2725 4251 
Q 3091 3903 3091 3403 
Q 3091 3084 2923 2848 
Q 2756 2613 2416 2484 
Q 2838 2347 3058 2040 
Q 3278 1734 3278 1309 
Q 3278 722 2862 322 
Q 2447 -78 1769 -78 
Q 1091 -78 675 323 
Q 259 725 259 1325 
Q 259 1772 486 2073 
Q 713 2375 1131 2484 
z
M 1019 3438 
Q 1019 3113 1228 2906 
Q 1438 2700 1772 2700 
Q 2097 2700 2305 2904 
Q 2513 3109 2513 3406 
Q 2513 3716 2298 3927 
Q 2084 4138 1766 4138 
Q 1444 4138 1231 3931 
Q 1019 3725 1019 3438 
z
M 838 1322 
Q 838 1081 952 856 
Q 1066 631 1291 507 
Q 1516 384 1775 384 
Q 2178 384 2440 643 
Q 2703 903 2703 1303 
Q 2703 1709 2433 1975 
Q 2163 2241 1756 2241 
Q 1359 2241 1098 1978 
Q 838 1716 838 1322 
z
" transform="scale(0.015625)"/>
        <path id="ArialMT-34" d="M 2069 0 
L 2069 1097 
L 81 1097 
L 81 1613 
L 2172 4581 
L 2631 4581 
L 2631 1613 
L 3250 1613 
L 3250 1097 
L 2631 1097 
L 2631 0 
L 2069 0 
z
M 2069 1613 
L 2069 3678 
L 634 1613 
L 2069 1613 
z
" transform="scale(0.015625)"/>
        <path id="DejaVuSans-2212" d="M 678 2272 
L 4684 2272 
L 4684 1741 
L 678 1741 
L 678 2272 
z
" transform="scale(0.015625)"/>
        <path id="ArialMT-37" d="M 303 3981 
L 303 4522 
L 3269 4522 
L 3269 4084 
Q 2831 3619 2401 2847 
Q 1972 2075 1738 1259 
Q 1569 684 1522 0 
L 944 0 
Q 953 541 1156 1306 
Q 1359 2072 1739 2783 
Q 2119 3494 2547 3981 
L 303 3981 
z
" transform="scale(0.015625)"/>
        <path id="ArialMT-36" d="M 3184 3459 
L 2625 3416 
Q 2550 3747 2413 3897 
Q 2184 4138 1850 4138 
Q 1581 4138 1378 3988 
Q 1113 3794 959 3422 
Q 806 3050 800 2363 
Q 1003 2672 1297 2822 
Q 1591 2972 1913 2972 
Q 2475 2972 2870 2558 
Q 3266 2144 3266 1488 
Q 3266 1056 3080 686 
Q 2894 316 2569 119 
Q 2244 -78 1831 -78 
Q 1128 -78 684 439 
Q 241 956 241 2144 
Q 241 3472 731 4075 
Q 1159 4600 1884 4600 
Q 2425 4600 2770 4297 
Q 3116 3994 3184 3459 
z
M 888 1484 
Q 888 1194 1011 928 
Q 1134 663 1356 523 
Q 1578 384 1822 384 
Q 2178 384 2434 671 
Q 2691 959 2691 1453 
Q 2691 1928 2437 2201 
Q 2184 2475 1800 2475 
Q 1419 2475 1153 2201 
Q 888 1928 888 1484 
z
" transform="scale(0.015625)"/>
        <path id="DejaVuSans-55" d="M 556 4666 
L 1191 4666 
L 1191 1831 
Q 1191 1081 1462 751 
Q 1734 422 2344 422 
Q 2950 422 3222 751 
Q 3494 1081 3494 1831 
L 3494 4666 
L 4128 4666 
L 4128 1753 
Q 4128 841 3676 375 
Q 3225 -91 2344 -91 
Q 1459 -91 1007 375 
Q 556 841 556 1753 
L 556 4666 
z
" transform="scale(0.015625)"/>
        <path id="DejaVuSans-53" d="M 3425 4513 
L 3425 3897 
Q 3066 4069 2747 4153 
Q 2428 4238 2131 4238 
Q 1616 4238 1336 4038 
Q 1056 3838 1056 3469 
Q 1056 3159 1242 3001 
Q 1428 2844 1947 2747 
L 2328 2669 
Q 3034 2534 3370 2195 
Q 3706 1856 3706 1288 
Q 3706 609 3251 259 
Q 2797 -91 1919 -91 
Q 1588 -91 1214 -16 
Q 841 59 441 206 
L 441 856 
Q 825 641 1194 531 
Q 1563 422 1919 422 
Q 2459 422 2753 634 
Q 3047 847 3047 1241 
Q 3047 1584 2836 1778 
Q 2625 1972 2144 2069 
L 1759 2144 
Q 1053 2284 737 2584 
Q 422 2884 422 3419 
Q 422 4038 858 4394 
Q 1294 4750 2059 4750 
Q 2388 4750 2728 4690 
Q 3069 4631 3425 4513 
z
" transform="scale(0.015625)"/>
        <path id="DejaVuSans-44" d="M 1259 4147 
L 1259 519 
L 2022 519 
Q 2988 519 3436 956 
Q 3884 1394 3884 2338 
Q 3884 3275 3436 3711 
Q 2988 4147 2022 4147 
L 1259 4147 
z
M 628 4666 
L 1925 4666 
Q 3281 4666 3915 4102 
Q 4550 3538 4550 2338 
Q 4550 1131 3912 565 
Q 3275 0 1925 0 
L 628 0 
L 628 4666 
z
" transform="scale(0.015625)"/>
        <path id="DejaVuSans-22c5" d="M 684 2619 
L 1344 2619 
L 1344 1825 
L 684 1825 
L 684 2619 
z
" transform="scale(0.015625)"/>
        <path id="DejaVuSans-6b" d="M 581 4863 
L 1159 4863 
L 1159 1991 
L 2875 3500 
L 3609 3500 
L 1753 1863 
L 3688 0 
L 2938 0 
L 1159 1709 
L 1159 0 
L 581 0 
L 581 4863 
z
" transform="scale(0.015625)"/>
        <path id="DejaVuSans-67" d="M 2906 1791 
Q 2906 2416 2648 2759 
Q 2391 3103 1925 3103 
Q 1463 3103 1205 2759 
Q 947 2416 947 1791 
Q 947 1169 1205 825 
Q 1463 481 1925 481 
Q 2391 481 2648 825 
Q 2906 1169 2906 1791 
z
M 3481 434 
Q 3481 -459 3084 -895 
Q 2688 -1331 1869 -1331 
Q 1566 -1331 1297 -1286 
Q 1028 -1241 775 -1147 
L 775 -588 
Q 1028 -725 1275 -790 
Q 1522 -856 1778 -856 
Q 2344 -856 2625 -561 
Q 2906 -266 2906 331 
L 2906 616 
Q 2728 306 2450 153 
Q 2172 0 1784 0 
Q 1141 0 747 490 
Q 353 981 353 1791 
Q 353 2603 747 3093 
Q 1141 3584 1784 3584 
Q 2172 3584 2450 3431 
Q 2728 3278 2906 2969 
L 2906 3500 
L 3481 3500 
L 3481 434 
z
" transform="scale(0.015625)"/>
        <path id="DejaVuSans-31" d="M 794 531 
L 1825 531 
L 1825 4091 
L 703 3866 
L 703 4441 
L 1819 4666 
L 2450 4666 
L 2450 531 
L 3481 531 
L 3481 0 
L 794 0 
L 794 531 
z
" transform="scale(0.015625)"/>
        <path id="ArialMT-5d" d="M 1363 -1272 
L 122 -1272 
L 122 -806 
L 800 -806 
L 800 4116 
L 122 4116 
L 122 4581 
L 1363 4581 
L 1363 -1272 
z
" transform="scale(0.015625)"/>
       </defs>
       <use xlink:href="#ArialMT-5b" transform="translate(0 0.684375)"/>
       <use xlink:href="#ArialMT-30" transform="translate(27.783203 0.684375)"/>
       <use xlink:href="#ArialMT-2e" transform="translate(83.398438 0.684375)"/>
       <use xlink:href="#ArialMT-35" transform="translate(111.181641 0.684375)"/>
       <use xlink:href="#ArialMT-38" transform="translate(166.796875 0.684375)"/>
       <use xlink:href="#ArialMT-34" transform="translate(222.412109 0.684375)"/>
       <use xlink:href="#ArialMT-20" transform="translate(278.027344 0.684375)"/>
       <use xlink:href="#DejaVuSans-2212" transform="translate(305.810547 0.684375)"/>
       <use xlink:href="#ArialMT-20" transform="translate(389.599609 0.684375)"/>
       <use xlink:href="#ArialMT-30" transform="translate(417.382812 0.684375)"/>
       <use xlink:href="#ArialMT-2e" transform="translate(472.998047 0.684375)"/>
       <use xlink:href="#ArialMT-38" transform="translate(500.78125 0.684375)"/>
       <use xlink:href="#ArialMT-37" transform="translate(556.396484 0.684375)"/>
       <use xlink:href="#ArialMT-36" transform="translate(612.011719 0.684375)"/>
       <use xlink:href="#ArialMT-20" transform="translate(667.626953 0.684375)"/>
       <use xlink:href="#DejaVuSans-55" transform="translate(695.410156 0.684375)"/>
       <use xlink:href="#DejaVuSans-53" transform="translate(768.603516 0.684375)"/>
       <use xlink:href="#DejaVuSans-44" transform="translate(832.080078 0.684375)"/>
       <use xlink:href="#DejaVuSans-22c5" transform="translate(928.564453 0.684375)"/>
       <use xlink:href="#DejaVuSans-6b" transform="translate(979.833984 0.684375)"/>
       <use xlink:href="#DejaVuSans-67" transform="translate(1037.744141 0.684375)"/>
       <use xlink:href="#DejaVuSans-2212" transform="translate(1102.177734 38.965625) scale(0.7)"/>
       <use xlink:href="#DejaVuSans-31" transform="translate(1160.830078 38.965625) scale(0.7)"/>
       <use xlink:href="#ArialMT-5d" transform="translate(1208.100586 0.684375)"/>
      </g>
     </g>
    </g>
    <g id="ytick_2">
     <g id="line2d_11">
      <g>
       <use xlink:href="#m7bc4ab9f88" x="150.010056" y="227.031029" style="stroke: #000000; stroke-width: 0.8"/>
      </g>
     </g>
     <g id="text_8">
      <!-- H2 price -->
      <g transform="translate(99.828806 224.751029) scale(0.12 -0.12)">
       <defs>
        <path id="ArialMT-32" d="M 3222 541 
L 3222 0 
L 194 0 
Q 188 203 259 391 
Q 375 700 629 1000 
Q 884 1300 1366 1694 
Q 2113 2306 2375 2664 
Q 2638 3022 2638 3341 
Q 2638 3675 2398 3904 
Q 2159 4134 1775 4134 
Q 1369 4134 1125 3890 
Q 881 3647 878 3216 
L 300 3275 
Q 359 3922 746 4261 
Q 1134 4600 1788 4600 
Q 2447 4600 2831 4234 
Q 3216 3869 3216 3328 
Q 3216 3053 3103 2787 
Q 2991 2522 2730 2228 
Q 2469 1934 1863 1422 
Q 1356 997 1212 845 
Q 1069 694 975 541 
L 3222 541 
z
" transform="scale(0.015625)"/>
       </defs>
       <use xlink:href="#ArialMT-48"/>
       <use xlink:href="#ArialMT-32" x="72.216797"/>
       <use xlink:href="#ArialMT-20" x="127.832031"/>
       <use xlink:href="#ArialMT-70" x="155.615234"/>
       <use xlink:href="#ArialMT-72" x="211.230469"/>
       <use xlink:href="#ArialMT-69" x="244.53125"/>
       <use xlink:href="#ArialMT-63" x="266.748047"/>
       <use xlink:href="#ArialMT-65" x="316.748047"/>
      </g>
      <!-- [3 $-$ 7 $\mathrm{USD} \cdot \mathrm{kg}^{-1}$] -->
      <g transform="translate(42.870056 240.096029) scale(0.12 -0.12)">
       <defs>
        <path id="ArialMT-33" d="M 269 1209 
L 831 1284 
Q 928 806 1161 595 
Q 1394 384 1728 384 
Q 2125 384 2398 659 
Q 2672 934 2672 1341 
Q 2672 1728 2419 1979 
Q 2166 2231 1775 2231 
Q 1616 2231 1378 2169 
L 1441 2663 
Q 1497 2656 1531 2656 
Q 1891 2656 2178 2843 
Q 2466 3031 2466 3422 
Q 2466 3731 2256 3934 
Q 2047 4138 1716 4138 
Q 1388 4138 1169 3931 
Q 950 3725 888 3313 
L 325 3413 
Q 428 3978 793 4289 
Q 1159 4600 1703 4600 
Q 2078 4600 2393 4439 
Q 2709 4278 2876 4000 
Q 3044 3722 3044 3409 
Q 3044 3113 2884 2869 
Q 2725 2625 2413 2481 
Q 2819 2388 3044 2092 
Q 3269 1797 3269 1353 
Q 3269 753 2831 336 
Q 2394 -81 1725 -81 
Q 1122 -81 723 278 
Q 325 638 269 1209 
z
" transform="scale(0.015625)"/>
       </defs>
       <use xlink:href="#ArialMT-5b" transform="translate(0 0.684375)"/>
       <use xlink:href="#ArialMT-33" transform="translate(27.783203 0.684375)"/>
       <use xlink:href="#ArialMT-20" transform="translate(83.398438 0.684375)"/>
       <use xlink:href="#DejaVuSans-2212" transform="translate(111.181641 0.684375)"/>
       <use xlink:href="#ArialMT-20" transform="translate(194.970703 0.684375)"/>
       <use xlink:href="#ArialMT-37" transform="translate(222.753906 0.684375)"/>
       <use xlink:href="#ArialMT-20" transform="translate(278.369141 0.684375)"/>
       <use xlink:href="#DejaVuSans-55" transform="translate(306.152344 0.684375)"/>
       <use xlink:href="#DejaVuSans-53" transform="translate(379.345703 0.684375)"/>
       <use xlink:href="#DejaVuSans-44" transform="translate(442.822266 0.684375)"/>
       <use xlink:href="#DejaVuSans-22c5" transform="translate(539.306641 0.684375)"/>
       <use xlink:href="#DejaVuSans-6b" transform="translate(590.576172 0.684375)"/>
       <use xlink:href="#DejaVuSans-67" transform="translate(648.486328 0.684375)"/>
       <use xlink:href="#DejaVuSans-2212" transform="translate(712.919922 38.965625) scale(0.7)"/>
       <use xlink:href="#DejaVuSans-31" transform="translate(771.572266 38.965625) scale(0.7)"/>
       <use xlink:href="#ArialMT-5d" transform="translate(818.842773 0.684375)"/>
      </g>
     </g>
    </g>
    <g id="ytick_3">
     <g id="line2d_12">
      <g>
       <use xlink:href="#m7bc4ab9f88" x="150.010056" y="194.222506" style="stroke: #000000; stroke-width: 0.8"/>
      </g>
     </g>
     <g id="text_9">
      <!-- AcOH productivity -->
      <g transform="translate(48.483806 191.931256) scale(0.12 -0.12)">
       <defs>
        <path id="ArialMT-41" d="M -9 0 
L 1750 4581 
L 2403 4581 
L 4278 0 
L 3588 0 
L 3053 1388 
L 1138 1388 
L 634 0 
L -9 0 
z
M 1313 1881 
L 2866 1881 
L 2388 3150 
Q 2169 3728 2063 4100 
Q 1975 3659 1816 3225 
L 1313 1881 
z
" transform="scale(0.015625)"/>
        <path id="ArialMT-4f" d="M 309 2231 
Q 309 3372 921 4017 
Q 1534 4663 2503 4663 
Q 3138 4663 3647 4359 
Q 4156 4056 4423 3514 
Q 4691 2972 4691 2284 
Q 4691 1588 4409 1038 
Q 4128 488 3612 205 
Q 3097 -78 2500 -78 
Q 1853 -78 1343 234 
Q 834 547 571 1087 
Q 309 1628 309 2231 
z
M 934 2222 
Q 934 1394 1379 917 
Q 1825 441 2497 441 
Q 3181 441 3623 922 
Q 4066 1403 4066 2288 
Q 4066 2847 3877 3264 
Q 3688 3681 3323 3911 
Q 2959 4141 2506 4141 
Q 1863 4141 1398 3698 
Q 934 3256 934 2222 
z
" transform="scale(0.015625)"/>
        <path id="ArialMT-64" d="M 2575 0 
L 2575 419 
Q 2259 -75 1647 -75 
Q 1250 -75 917 144 
Q 584 363 401 755 
Q 219 1147 219 1656 
Q 219 2153 384 2558 
Q 550 2963 881 3178 
Q 1213 3394 1622 3394 
Q 1922 3394 2156 3267 
Q 2391 3141 2538 2938 
L 2538 4581 
L 3097 4581 
L 3097 0 
L 2575 0 
z
M 797 1656 
Q 797 1019 1065 703 
Q 1334 388 1700 388 
Q 2069 388 2326 689 
Q 2584 991 2584 1609 
Q 2584 2291 2321 2609 
Q 2059 2928 1675 2928 
Q 1300 2928 1048 2622 
Q 797 2316 797 1656 
z
" transform="scale(0.015625)"/>
        <path id="ArialMT-75" d="M 2597 0 
L 2597 488 
Q 2209 -75 1544 -75 
Q 1250 -75 995 37 
Q 741 150 617 320 
Q 494 491 444 738 
Q 409 903 409 1263 
L 409 3319 
L 972 3319 
L 972 1478 
Q 972 1038 1006 884 
Q 1059 663 1231 536 
Q 1403 409 1656 409 
Q 1909 409 2131 539 
Q 2353 669 2445 892 
Q 2538 1116 2538 1541 
L 2538 3319 
L 3100 3319 
L 3100 0 
L 2597 0 
z
" transform="scale(0.015625)"/>
        <path id="ArialMT-76" d="M 1344 0 
L 81 3319 
L 675 3319 
L 1388 1331 
Q 1503 1009 1600 663 
Q 1675 925 1809 1294 
L 2547 3319 
L 3125 3319 
L 1869 0 
L 1344 0 
z
" transform="scale(0.015625)"/>
        <path id="ArialMT-79" d="M 397 -1278 
L 334 -750 
Q 519 -800 656 -800 
Q 844 -800 956 -737 
Q 1069 -675 1141 -563 
Q 1194 -478 1313 -144 
Q 1328 -97 1363 -6 
L 103 3319 
L 709 3319 
L 1400 1397 
Q 1534 1031 1641 628 
Q 1738 1016 1872 1384 
L 2581 3319 
L 3144 3319 
L 1881 -56 
Q 1678 -603 1566 -809 
Q 1416 -1088 1222 -1217 
Q 1028 -1347 759 -1347 
Q 597 -1347 397 -1278 
z
" transform="scale(0.015625)"/>
       </defs>
       <use xlink:href="#ArialMT-41"/>
       <use xlink:href="#ArialMT-63" x="66.699219"/>
       <use xlink:href="#ArialMT-4f" x="116.699219"/>
       <use xlink:href="#ArialMT-48" x="194.482422"/>
       <use xlink:href="#ArialMT-20" x="266.699219"/>
       <use xlink:href="#ArialMT-70" x="294.482422"/>
       <use xlink:href="#ArialMT-72" x="350.097656"/>
       <use xlink:href="#ArialMT-6f" x="383.398438"/>
       <use xlink:href="#ArialMT-64" x="439.013672"/>
       <use xlink:href="#ArialMT-75" x="494.628906"/>
       <use xlink:href="#ArialMT-63" x="550.244141"/>
       <use xlink:href="#ArialMT-74" x="600.244141"/>
       <use xlink:href="#ArialMT-69" x="628.027344"/>
       <use xlink:href="#ArialMT-76" x="650.244141"/>
       <use xlink:href="#ArialMT-69" x="700.244141"/>
       <use xlink:href="#ArialMT-74" x="722.460938"/>
       <use xlink:href="#ArialMT-79" x="750.244141"/>
      </g>
      <!-- [1 $-$ 3 $\mathrm{g} \cdot \mathrm{L}^{-1} \cdot \mathrm{h}^{-1}$] -->
      <g transform="translate(39.870056 207.416881) scale(0.12 -0.12)">
       <defs>
        <path id="DejaVuSans-4c" d="M 628 4666 
L 1259 4666 
L 1259 531 
L 3531 531 
L 3531 0 
L 628 0 
L 628 4666 
z
" transform="scale(0.015625)"/>
        <path id="DejaVuSans-68" d="M 3513 2113 
L 3513 0 
L 2938 0 
L 2938 2094 
Q 2938 2591 2744 2837 
Q 2550 3084 2163 3084 
Q 1697 3084 1428 2787 
Q 1159 2491 1159 1978 
L 1159 0 
L 581 0 
L 581 4863 
L 1159 4863 
L 1159 2956 
Q 1366 3272 1645 3428 
Q 1925 3584 2291 3584 
Q 2894 3584 3203 3211 
Q 3513 2838 3513 2113 
z
" transform="scale(0.015625)"/>
       </defs>
       <use xlink:href="#ArialMT-5b" transform="translate(0 0.684375)"/>
       <use xlink:href="#ArialMT-31" transform="translate(27.783203 0.684375)"/>
       <use xlink:href="#ArialMT-20" transform="translate(83.398438 0.684375)"/>
       <use xlink:href="#DejaVuSans-2212" transform="translate(111.181641 0.684375)"/>
       <use xlink:href="#ArialMT-20" transform="translate(194.970703 0.684375)"/>
       <use xlink:href="#ArialMT-33" transform="translate(222.753906 0.684375)"/>
       <use xlink:href="#ArialMT-20" transform="translate(278.369141 0.684375)"/>
       <use xlink:href="#DejaVuSans-67" transform="translate(306.152344 0.684375)"/>
       <use xlink:href="#DejaVuSans-22c5" transform="translate(389.111328 0.684375)"/>
       <use xlink:href="#DejaVuSans-4c" transform="translate(440.380859 0.684375)"/>
       <use xlink:href="#DejaVuSans-2212" transform="translate(497.050781 38.965625) scale(0.7)"/>
       <use xlink:href="#DejaVuSans-31" transform="translate(555.703125 38.965625) scale(0.7)"/>
       <use xlink:href="#DejaVuSans-22c5" transform="translate(622.456055 0.684375)"/>
       <use xlink:href="#DejaVuSans-68" transform="translate(673.725586 0.684375)"/>
       <use xlink:href="#DejaVuSans-2212" transform="translate(738.061523 38.965625) scale(0.7)"/>
       <use xlink:href="#DejaVuSans-31" transform="translate(796.713867 38.965625) scale(0.7)"/>
       <use xlink:href="#ArialMT-5d" transform="translate(843.984375 0.684375)"/>
      </g>
     </g>
    </g>
    <g id="ytick_4">
     <g id="line2d_13">
      <g>
       <use xlink:href="#m7bc4ab9f88" x="150.010056" y="161.413983" style="stroke: #000000; stroke-width: 0.8"/>
      </g>
     </g>
     <g id="text_10">
      <!-- AcEster productivity -->
      <g transform="translate(38.476931 159.045858) scale(0.12 -0.12)">
       <defs>
        <path id="ArialMT-45" d="M 506 0 
L 506 4581 
L 3819 4581 
L 3819 4041 
L 1113 4041 
L 1113 2638 
L 3647 2638 
L 3647 2100 
L 1113 2100 
L 1113 541 
L 3925 541 
L 3925 0 
L 506 0 
z
" transform="scale(0.015625)"/>
       </defs>
       <use xlink:href="#ArialMT-41"/>
       <use xlink:href="#ArialMT-63" x="66.699219"/>
       <use xlink:href="#ArialMT-45" x="116.699219"/>
       <use xlink:href="#ArialMT-73" x="183.398438"/>
       <use xlink:href="#ArialMT-74" x="233.398438"/>
       <use xlink:href="#ArialMT-65" x="261.181641"/>
       <use xlink:href="#ArialMT-72" x="316.796875"/>
       <use xlink:href="#ArialMT-20" x="350.097656"/>
       <use xlink:href="#ArialMT-70" x="377.880859"/>
       <use xlink:href="#ArialMT-72" x="433.496094"/>
       <use xlink:href="#ArialMT-6f" x="466.796875"/>
       <use xlink:href="#ArialMT-64" x="522.412109"/>
       <use xlink:href="#ArialMT-75" x="578.027344"/>
       <use xlink:href="#ArialMT-63" x="633.642578"/>
       <use xlink:href="#ArialMT-74" x="683.642578"/>
       <use xlink:href="#ArialMT-69" x="711.425781"/>
       <use xlink:href="#ArialMT-76" x="733.642578"/>
       <use xlink:href="#ArialMT-69" x="783.642578"/>
       <use xlink:href="#ArialMT-74" x="805.859375"/>
       <use xlink:href="#ArialMT-79" x="833.642578"/>
      </g>
      <!-- [0.2 $-$ 2 $\mathrm{g} \cdot \mathrm{L}^{-1} \cdot \mathrm{h}^{-1}$] -->
      <g transform="translate(29.790056 174.531483) scale(0.12 -0.12)">
       <use xlink:href="#ArialMT-5b" transform="translate(0 0.684375)"/>
       <use xlink:href="#ArialMT-30" transform="translate(27.783203 0.684375)"/>
       <use xlink:href="#ArialMT-2e" transform="translate(83.398438 0.684375)"/>
       <use xlink:href="#ArialMT-32" transform="translate(111.181641 0.684375)"/>
       <use xlink:href="#ArialMT-20" transform="translate(166.796875 0.684375)"/>
       <use xlink:href="#DejaVuSans-2212" transform="translate(194.580078 0.684375)"/>
       <use xlink:href="#ArialMT-20" transform="translate(278.369141 0.684375)"/>
       <use xlink:href="#ArialMT-32" transform="translate(306.152344 0.684375)"/>
       <use xlink:href="#ArialMT-20" transform="translate(361.767578 0.684375)"/>
       <use xlink:href="#DejaVuSans-67" transform="translate(389.550781 0.684375)"/>
       <use xlink:href="#DejaVuSans-22c5" transform="translate(472.509766 0.684375)"/>
       <use xlink:href="#DejaVuSans-4c" transform="translate(523.779297 0.684375)"/>
       <use xlink:href="#DejaVuSans-2212" transform="translate(580.449219 38.965625) scale(0.7)"/>
       <use xlink:href="#DejaVuSans-31" transform="translate(639.101562 38.965625) scale(0.7)"/>
       <use xlink:href="#DejaVuSans-22c5" transform="translate(705.854492 0.684375)"/>
       <use xlink:href="#DejaVuSans-68" transform="translate(757.124023 0.684375)"/>
       <use xlink:href="#DejaVuSans-2212" transform="translate(821.459961 38.965625) scale(0.7)"/>
       <use xlink:href="#DejaVuSans-31" transform="translate(880.112305 38.965625) scale(0.7)"/>
       <use xlink:href="#ArialMT-5d" transform="translate(927.382812 0.684375)"/>
      </g>
     </g>
    </g>
    <g id="ytick_5">
     <g id="line2d_14">
      <g>
       <use xlink:href="#m7bc4ab9f88" x="150.010056" y="128.605459" style="stroke: #000000; stroke-width: 0.8"/>
      </g>
     </g>
     <g id="text_11">
      <!-- EtAc price -->
      <g transform="translate(89.825681 126.307647) scale(0.12 -0.12)">
       <use xlink:href="#ArialMT-45"/>
       <use xlink:href="#ArialMT-74" x="66.699219"/>
       <use xlink:href="#ArialMT-41" x="94.482422"/>
       <use xlink:href="#ArialMT-63" x="161.181641"/>
       <use xlink:href="#ArialMT-20" x="211.181641"/>
       <use xlink:href="#ArialMT-70" x="238.964844"/>
       <use xlink:href="#ArialMT-72" x="294.580078"/>
       <use xlink:href="#ArialMT-69" x="327.880859"/>
       <use xlink:href="#ArialMT-63" x="350.097656"/>
       <use xlink:href="#ArialMT-65" x="400.097656"/>
      </g>
      <!-- [1.26 $-$ 1.88 $\mathrm{USD} \cdot \mathrm{kg}^{-1}$] -->
      <g transform="translate(9.510056 141.652647) scale(0.12 -0.12)">
       <use xlink:href="#ArialMT-5b" transform="translate(0 0.684375)"/>
       <use xlink:href="#ArialMT-31" transform="translate(27.783203 0.684375)"/>
       <use xlink:href="#ArialMT-2e" transform="translate(83.398438 0.684375)"/>
       <use xlink:href="#ArialMT-32" transform="translate(111.181641 0.684375)"/>
       <use xlink:href="#ArialMT-36" transform="translate(166.796875 0.684375)"/>
       <use xlink:href="#ArialMT-20" transform="translate(222.412109 0.684375)"/>
       <use xlink:href="#DejaVuSans-2212" transform="translate(250.195312 0.684375)"/>
       <use xlink:href="#ArialMT-20" transform="translate(333.984375 0.684375)"/>
       <use xlink:href="#ArialMT-31" transform="translate(361.767578 0.684375)"/>
       <use xlink:href="#ArialMT-2e" transform="translate(417.382812 0.684375)"/>
       <use xlink:href="#ArialMT-38" transform="translate(445.166016 0.684375)"/>
       <use xlink:href="#ArialMT-38" transform="translate(500.78125 0.684375)"/>
       <use xlink:href="#ArialMT-20" transform="translate(556.396484 0.684375)"/>
       <use xlink:href="#DejaVuSans-55" transform="translate(584.179688 0.684375)"/>
       <use xlink:href="#DejaVuSans-53" transform="translate(657.373047 0.684375)"/>
       <use xlink:href="#DejaVuSans-44" transform="translate(720.849609 0.684375)"/>
       <use xlink:href="#DejaVuSans-22c5" transform="translate(817.333984 0.684375)"/>
       <use xlink:href="#DejaVuSans-6b" transform="translate(868.603516 0.684375)"/>
       <use xlink:href="#DejaVuSans-67" transform="translate(926.513672 0.684375)"/>
       <use xlink:href="#DejaVuSans-2212" transform="translate(990.947266 38.965625) scale(0.7)"/>
       <use xlink:href="#DejaVuSans-31" transform="translate(1049.599609 38.965625) scale(0.7)"/>
       <use xlink:href="#ArialMT-5d" transform="translate(1096.870117 0.684375)"/>
      </g>
     </g>
    </g>
    <g id="ytick_6">
     <g id="line2d_15">
      <g>
       <use xlink:href="#m7bc4ab9f88" x="150.010056" y="95.796936" style="stroke: #000000; stroke-width: 0.8"/>
      </g>
     </g>
     <g id="text_12">
      <!-- AcOH titer -->
      <g transform="translate(89.169431 93.499123) scale(0.12 -0.12)">
       <use xlink:href="#ArialMT-41"/>
       <use xlink:href="#ArialMT-63" x="66.699219"/>
       <use xlink:href="#ArialMT-4f" x="116.699219"/>
       <use xlink:href="#ArialMT-48" x="194.482422"/>
       <use xlink:href="#ArialMT-20" x="266.699219"/>
       <use xlink:href="#ArialMT-74" x="294.482422"/>
       <use xlink:href="#ArialMT-69" x="322.265625"/>
       <use xlink:href="#ArialMT-74" x="344.482422"/>
       <use xlink:href="#ArialMT-65" x="372.265625"/>
       <use xlink:href="#ArialMT-72" x="427.880859"/>
      </g>
      <!-- [50 $-$ 90 $\mathrm{g} \cdot \mathrm{L}^{-1}$] -->
      <g transform="translate(55.470056 108.844123) scale(0.12 -0.12)">
       <defs>
        <path id="ArialMT-39" d="M 350 1059 
L 891 1109 
Q 959 728 1153 556 
Q 1347 384 1650 384 
Q 1909 384 2104 503 
Q 2300 622 2425 820 
Q 2550 1019 2634 1356 
Q 2719 1694 2719 2044 
Q 2719 2081 2716 2156 
Q 2547 1888 2255 1720 
Q 1963 1553 1622 1553 
Q 1053 1553 659 1965 
Q 266 2378 266 3053 
Q 266 3750 677 4175 
Q 1088 4600 1706 4600 
Q 2153 4600 2523 4359 
Q 2894 4119 3086 3673 
Q 3278 3228 3278 2384 
Q 3278 1506 3087 986 
Q 2897 466 2520 194 
Q 2144 -78 1638 -78 
Q 1100 -78 759 220 
Q 419 519 350 1059 
z
M 2653 3081 
Q 2653 3566 2395 3850 
Q 2138 4134 1775 4134 
Q 1400 4134 1122 3828 
Q 844 3522 844 3034 
Q 844 2597 1108 2323 
Q 1372 2050 1759 2050 
Q 2150 2050 2401 2323 
Q 2653 2597 2653 3081 
z
" transform="scale(0.015625)"/>
       </defs>
       <use xlink:href="#ArialMT-5b" transform="translate(0 0.684375)"/>
       <use xlink:href="#ArialMT-35" transform="translate(27.783203 0.684375)"/>
       <use xlink:href="#ArialMT-30" transform="translate(83.398438 0.684375)"/>
       <use xlink:href="#ArialMT-20" transform="translate(139.013672 0.684375)"/>
       <use xlink:href="#DejaVuSans-2212" transform="translate(166.796875 0.684375)"/>
       <use xlink:href="#ArialMT-20" transform="translate(250.585938 0.684375)"/>
       <use xlink:href="#ArialMT-39" transform="translate(278.369141 0.684375)"/>
       <use xlink:href="#ArialMT-30" transform="translate(333.984375 0.684375)"/>
       <use xlink:href="#ArialMT-20" transform="translate(389.599609 0.684375)"/>
       <use xlink:href="#DejaVuSans-67" transform="translate(417.382812 0.684375)"/>
       <use xlink:href="#DejaVuSans-22c5" transform="translate(500.341797 0.684375)"/>
       <use xlink:href="#DejaVuSans-4c" transform="translate(551.611328 0.684375)"/>
       <use xlink:href="#DejaVuSans-2212" transform="translate(608.28125 38.965625) scale(0.7)"/>
       <use xlink:href="#DejaVuSans-31" transform="translate(666.933594 38.965625) scale(0.7)"/>
       <use xlink:href="#ArialMT-5d" transform="translate(714.204102 0.684375)"/>
      </g>
     </g>
    </g>
    <g id="ytick_7">
     <g id="line2d_16">
      <g>
       <use xlink:href="#m7bc4ab9f88" x="150.010056" y="62.988412" style="stroke: #000000; stroke-width: 0.8"/>
      </g>
     </g>
     <g id="text_13">
      <!-- AcEster production -->
      <g transform="translate(43.130681 60.6906) scale(0.12 -0.12)">
       <use xlink:href="#ArialMT-41"/>
       <use xlink:href="#ArialMT-63" x="66.699219"/>
       <use xlink:href="#ArialMT-45" x="116.699219"/>
       <use xlink:href="#ArialMT-73" x="183.398438"/>
       <use xlink:href="#ArialMT-74" x="233.398438"/>
       <use xlink:href="#ArialMT-65" x="261.181641"/>
       <use xlink:href="#ArialMT-72" x="316.796875"/>
       <use xlink:href="#ArialMT-20" x="350.097656"/>
       <use xlink:href="#ArialMT-70" x="377.880859"/>
       <use xlink:href="#ArialMT-72" x="433.496094"/>
       <use xlink:href="#ArialMT-6f" x="466.796875"/>
       <use xlink:href="#ArialMT-64" x="522.412109"/>
       <use xlink:href="#ArialMT-75" x="578.027344"/>
       <use xlink:href="#ArialMT-63" x="633.642578"/>
       <use xlink:href="#ArialMT-74" x="683.642578"/>
       <use xlink:href="#ArialMT-69" x="711.425781"/>
       <use xlink:href="#ArialMT-6f" x="733.642578"/>
       <use xlink:href="#ArialMT-6e" x="789.257812"/>
      </g>
      <!-- [5e+03 $-$ 5e+04 $\mathrm{MT} \cdot \mathrm{yr}^{-1}$] -->
      <g transform="translate(-0.689944 76.0356) scale(0.12 -0.12)">
       <defs>
        <path id="ArialMT-2b" d="M 1603 741 
L 1603 1997 
L 356 1997 
L 356 2522 
L 1603 2522 
L 1603 3769 
L 2134 3769 
L 2134 2522 
L 3381 2522 
L 3381 1997 
L 2134 1997 
L 2134 741 
L 1603 741 
z
" transform="scale(0.015625)"/>
        <path id="DejaVuSans-4d" d="M 628 4666 
L 1569 4666 
L 2759 1491 
L 3956 4666 
L 4897 4666 
L 4897 0 
L 4281 0 
L 4281 4097 
L 3078 897 
L 2444 897 
L 1241 4097 
L 1241 0 
L 628 0 
L 628 4666 
z
" transform="scale(0.015625)"/>
        <path id="DejaVuSans-54" d="M -19 4666 
L 3928 4666 
L 3928 4134 
L 2272 4134 
L 2272 0 
L 1638 0 
L 1638 4134 
L -19 4134 
L -19 4666 
z
" transform="scale(0.015625)"/>
        <path id="DejaVuSans-79" d="M 2059 -325 
Q 1816 -950 1584 -1140 
Q 1353 -1331 966 -1331 
L 506 -1331 
L 506 -850 
L 844 -850 
Q 1081 -850 1212 -737 
Q 1344 -625 1503 -206 
L 1606 56 
L 191 3500 
L 800 3500 
L 1894 763 
L 2988 3500 
L 3597 3500 
L 2059 -325 
z
" transform="scale(0.015625)"/>
        <path id="DejaVuSans-72" d="M 2631 2963 
Q 2534 3019 2420 3045 
Q 2306 3072 2169 3072 
Q 1681 3072 1420 2755 
Q 1159 2438 1159 1844 
L 1159 0 
L 581 0 
L 581 3500 
L 1159 3500 
L 1159 2956 
Q 1341 3275 1631 3429 
Q 1922 3584 2338 3584 
Q 2397 3584 2469 3576 
Q 2541 3569 2628 3553 
L 2631 2963 
z
" transform="scale(0.015625)"/>
       </defs>
       <use xlink:href="#ArialMT-5b" transform="translate(0 0.684375)"/>
       <use xlink:href="#ArialMT-35" transform="translate(27.783203 0.684375)"/>
       <use xlink:href="#ArialMT-65" transform="translate(83.398438 0.684375)"/>
       <use xlink:href="#ArialMT-2b" transform="translate(139.013672 0.684375)"/>
       <use xlink:href="#ArialMT-30" transform="translate(197.412109 0.684375)"/>
       <use xlink:href="#ArialMT-33" transform="translate(253.027344 0.684375)"/>
       <use xlink:href="#ArialMT-20" transform="translate(308.642578 0.684375)"/>
       <use xlink:href="#DejaVuSans-2212" transform="translate(336.425781 0.684375)"/>
       <use xlink:href="#ArialMT-20" transform="translate(420.214844 0.684375)"/>
       <use xlink:href="#ArialMT-35" transform="translate(447.998047 0.684375)"/>
       <use xlink:href="#ArialMT-65" transform="translate(503.613281 0.684375)"/>
       <use xlink:href="#ArialMT-2b" transform="translate(559.228516 0.684375)"/>
       <use xlink:href="#ArialMT-30" transform="translate(617.626953 0.684375)"/>
       <use xlink:href="#ArialMT-34" transform="translate(673.242188 0.684375)"/>
       <use xlink:href="#ArialMT-20" transform="translate(728.857422 0.684375)"/>
       <use xlink:href="#DejaVuSans-4d" transform="translate(756.640625 0.684375)"/>
       <use xlink:href="#DejaVuSans-54" transform="translate(842.919922 0.684375)"/>
       <use xlink:href="#DejaVuSans-22c5" transform="translate(923.486328 0.684375)"/>
       <use xlink:href="#DejaVuSans-79" transform="translate(974.755859 0.684375)"/>
       <use xlink:href="#DejaVuSans-72" transform="translate(1033.935547 0.684375)"/>
       <use xlink:href="#DejaVuSans-2212" transform="translate(1076.005859 38.965625) scale(0.7)"/>
       <use xlink:href="#DejaVuSans-31" transform="translate(1134.658203 38.965625) scale(0.7)"/>
       <use xlink:href="#ArialMT-5d" transform="translate(1181.928711 0.684375)"/>
      </g>
     </g>
    </g>
    <g id="ytick_8">
     <g id="line2d_17">
      <g>
       <use xlink:href="#m7bc4ab9f88" x="150.010056" y="30.179889" style="stroke: #000000; stroke-width: 0.8"/>
      </g>
     </g>
     <g id="text_14">
      <!-- AcEster yield -->
      <g transform="translate(74.486306 28.651764) scale(0.12 -0.12)">
       <use xlink:href="#ArialMT-41"/>
       <use xlink:href="#ArialMT-63" x="66.699219"/>
       <use xlink:href="#ArialMT-45" x="116.699219"/>
       <use xlink:href="#ArialMT-73" x="183.398438"/>
       <use xlink:href="#ArialMT-74" x="233.398438"/>
       <use xlink:href="#ArialMT-65" x="261.181641"/>
       <use xlink:href="#ArialMT-72" x="316.796875"/>
       <use xlink:href="#ArialMT-20" x="350.097656"/>
       <use xlink:href="#ArialMT-79" x="377.880859"/>
       <use xlink:href="#ArialMT-69" x="427.880859"/>
       <use xlink:href="#ArialMT-65" x="450.097656"/>
       <use xlink:href="#ArialMT-6c" x="505.712891"/>
       <use xlink:href="#ArialMT-64" x="527.929688"/>
      </g>
      <!-- [40 $-$ 90 $\mathrm{\% theoretical}$] -->
      <g transform="translate(14.910056 42.121389) scale(0.12 -0.12)">
       <defs>
        <path id="DejaVuSans-25" d="M 4653 2053 
Q 4381 2053 4226 1822 
Q 4072 1591 4072 1178 
Q 4072 772 4226 539 
Q 4381 306 4653 306 
Q 4919 306 5073 539 
Q 5228 772 5228 1178 
Q 5228 1588 5073 1820 
Q 4919 2053 4653 2053 
z
M 4653 2450 
Q 5147 2450 5437 2106 
Q 5728 1763 5728 1178 
Q 5728 594 5436 251 
Q 5144 -91 4653 -91 
Q 4153 -91 3862 251 
Q 3572 594 3572 1178 
Q 3572 1766 3864 2108 
Q 4156 2450 4653 2450 
z
M 1428 4353 
Q 1159 4353 1004 4120 
Q 850 3888 850 3481 
Q 850 3069 1003 2837 
Q 1156 2606 1428 2606 
Q 1700 2606 1854 2837 
Q 2009 3069 2009 3481 
Q 2009 3884 1853 4118 
Q 1697 4353 1428 4353 
z
M 4250 4750 
L 4750 4750 
L 1831 -91 
L 1331 -91 
L 4250 4750 
z
M 1428 4750 
Q 1922 4750 2215 4408 
Q 2509 4066 2509 3481 
Q 2509 2891 2217 2550 
Q 1925 2209 1428 2209 
Q 931 2209 642 2551 
Q 353 2894 353 3481 
Q 353 4063 643 4406 
Q 934 4750 1428 4750 
z
" transform="scale(0.015625)"/>
        <path id="DejaVuSans-74" d="M 1172 4494 
L 1172 3500 
L 2356 3500 
L 2356 3053 
L 1172 3053 
L 1172 1153 
Q 1172 725 1289 603 
Q 1406 481 1766 481 
L 2356 481 
L 2356 0 
L 1766 0 
Q 1100 0 847 248 
Q 594 497 594 1153 
L 594 3053 
L 172 3053 
L 172 3500 
L 594 3500 
L 594 4494 
L 1172 4494 
z
" transform="scale(0.015625)"/>
        <path id="DejaVuSans-65" d="M 3597 1894 
L 3597 1613 
L 953 1613 
Q 991 1019 1311 708 
Q 1631 397 2203 397 
Q 2534 397 2845 478 
Q 3156 559 3463 722 
L 3463 178 
Q 3153 47 2828 -22 
Q 2503 -91 2169 -91 
Q 1331 -91 842 396 
Q 353 884 353 1716 
Q 353 2575 817 3079 
Q 1281 3584 2069 3584 
Q 2775 3584 3186 3129 
Q 3597 2675 3597 1894 
z
M 3022 2063 
Q 3016 2534 2758 2815 
Q 2500 3097 2075 3097 
Q 1594 3097 1305 2825 
Q 1016 2553 972 2059 
L 3022 2063 
z
" transform="scale(0.015625)"/>
        <path id="DejaVuSans-6f" d="M 1959 3097 
Q 1497 3097 1228 2736 
Q 959 2375 959 1747 
Q 959 1119 1226 758 
Q 1494 397 1959 397 
Q 2419 397 2687 759 
Q 2956 1122 2956 1747 
Q 2956 2369 2687 2733 
Q 2419 3097 1959 3097 
z
M 1959 3584 
Q 2709 3584 3137 3096 
Q 3566 2609 3566 1747 
Q 3566 888 3137 398 
Q 2709 -91 1959 -91 
Q 1206 -91 779 398 
Q 353 888 353 1747 
Q 353 2609 779 3096 
Q 1206 3584 1959 3584 
z
" transform="scale(0.015625)"/>
        <path id="DejaVuSans-69" d="M 603 3500 
L 1178 3500 
L 1178 0 
L 603 0 
L 603 3500 
z
M 603 4863 
L 1178 4863 
L 1178 4134 
L 603 4134 
L 603 4863 
z
" transform="scale(0.015625)"/>
        <path id="DejaVuSans-63" d="M 3122 3366 
L 3122 2828 
Q 2878 2963 2633 3030 
Q 2388 3097 2138 3097 
Q 1578 3097 1268 2742 
Q 959 2388 959 1747 
Q 959 1106 1268 751 
Q 1578 397 2138 397 
Q 2388 397 2633 464 
Q 2878 531 3122 666 
L 3122 134 
Q 2881 22 2623 -34 
Q 2366 -91 2075 -91 
Q 1284 -91 818 406 
Q 353 903 353 1747 
Q 353 2603 823 3093 
Q 1294 3584 2113 3584 
Q 2378 3584 2631 3529 
Q 2884 3475 3122 3366 
z
" transform="scale(0.015625)"/>
        <path id="DejaVuSans-61" d="M 2194 1759 
Q 1497 1759 1228 1600 
Q 959 1441 959 1056 
Q 959 750 1161 570 
Q 1363 391 1709 391 
Q 2188 391 2477 730 
Q 2766 1069 2766 1631 
L 2766 1759 
L 2194 1759 
z
M 3341 1997 
L 3341 0 
L 2766 0 
L 2766 531 
Q 2569 213 2275 61 
Q 1981 -91 1556 -91 
Q 1019 -91 701 211 
Q 384 513 384 1019 
Q 384 1609 779 1909 
Q 1175 2209 1959 2209 
L 2766 2209 
L 2766 2266 
Q 2766 2663 2505 2880 
Q 2244 3097 1772 3097 
Q 1472 3097 1187 3025 
Q 903 2953 641 2809 
L 641 3341 
Q 956 3463 1253 3523 
Q 1550 3584 1831 3584 
Q 2591 3584 2966 3190 
Q 3341 2797 3341 1997 
z
" transform="scale(0.015625)"/>
        <path id="DejaVuSans-6c" d="M 603 4863 
L 1178 4863 
L 1178 0 
L 603 0 
L 603 4863 
z
" transform="scale(0.015625)"/>
       </defs>
       <use xlink:href="#ArialMT-5b" transform="translate(0 0.015625)"/>
       <use xlink:href="#ArialMT-34" transform="translate(27.783203 0.015625)"/>
       <use xlink:href="#ArialMT-30" transform="translate(83.398438 0.015625)"/>
       <use xlink:href="#ArialMT-20" transform="translate(139.013672 0.015625)"/>
       <use xlink:href="#DejaVuSans-2212" transform="translate(166.796875 0.015625)"/>
       <use xlink:href="#ArialMT-20" transform="translate(250.585938 0.015625)"/>
       <use xlink:href="#ArialMT-39" transform="translate(278.369141 0.015625)"/>
       <use xlink:href="#ArialMT-30" transform="translate(333.984375 0.015625)"/>
       <use xlink:href="#ArialMT-20" transform="translate(389.599609 0.015625)"/>
       <use xlink:href="#DejaVuSans-25" transform="translate(417.382812 0.015625)"/>
       <use xlink:href="#DejaVuSans-74" transform="translate(512.402344 0.015625)"/>
       <use xlink:href="#DejaVuSans-68" transform="translate(551.611328 0.015625)"/>
       <use xlink:href="#DejaVuSans-65" transform="translate(614.990234 0.015625)"/>
       <use xlink:href="#DejaVuSans-6f" transform="translate(676.513672 0.015625)"/>
       <use xlink:href="#DejaVuSans-72" transform="translate(737.695312 0.015625)"/>
       <use xlink:href="#DejaVuSans-65" transform="translate(778.808594 0.015625)"/>
       <use xlink:href="#DejaVuSans-74" transform="translate(840.332031 0.015625)"/>
       <use xlink:href="#DejaVuSans-69" transform="translate(879.541016 0.015625)"/>
       <use xlink:href="#DejaVuSans-63" transform="translate(907.324219 0.015625)"/>
       <use xlink:href="#DejaVuSans-61" transform="translate(962.304688 0.015625)"/>
       <use xlink:href="#DejaVuSans-6c" transform="translate(1023.583984 0.015625)"/>
       <use xlink:href="#ArialMT-5d" transform="translate(1051.367188 0.015625)"/>
      </g>
     </g>
    </g>
   </g>
   <g id="line2d_18">
    <path d="M 225.015084 283.352328 
L 225.015084 6.667114 
" clip-path="url(#pba08dd8255)" style="fill: none; stroke: #3d4240; stroke-linecap: square"/>
   </g>
   <g id="patch_3">
    <path d="M 150.010056 283.352328 
L 150.010056 6.667114 
" style="fill: none; stroke: #000000; stroke-width: 0.8; stroke-linejoin: miter; stroke-linecap: square"/>
   </g>
   <g id="patch_4">
    <path d="M 300.020112 283.352328 
L 300.020112 6.667114 
" style="fill: none; stroke: #000000; stroke-width: 0.8; stroke-linejoin: miter; stroke-linecap: square"/>
   </g>
   <g id="patch_5">
    <path d="M 150.010056 283.352328 
L 300.020112 283.352328 
" style="fill: none; stroke: #000000; stroke-width: 0.8; stroke-linejoin: miter; stroke-linecap: square"/>
   </g>
   <g id="patch_6">
    <path d="M 150.010056 6.667114 
L 300.020112 6.667114 
" style="fill: none; stroke: #000000; stroke-width: 0.8; stroke-linejoin: miter; stroke-linecap: square"/>
   </g>
  </g>
  <g id="axes_2">
   <g id="matplotlib.axis_3">
    <g id="ytick_9">
     <g id="line2d_19">
      <defs>
       <path id="m6a23e5a934" d="M 0 0 
L -3.5 0 
" style="stroke: #000000; stroke-width: 0.8"/>
      </defs>
      <g>
       <use xlink:href="#m6a23e5a934" x="300.020112" y="259.839553" style="stroke: #000000; stroke-width: 0.8"/>
      </g>
     </g>
    </g>
    <g id="ytick_10">
     <g id="line2d_20">
      <g>
       <use xlink:href="#m6a23e5a934" x="300.020112" y="227.031029" style="stroke: #000000; stroke-width: 0.8"/>
      </g>
     </g>
    </g>
    <g id="ytick_11">
     <g id="line2d_21">
      <g>
       <use xlink:href="#m6a23e5a934" x="300.020112" y="194.222506" style="stroke: #000000; stroke-width: 0.8"/>
      </g>
     </g>
    </g>
    <g id="ytick_12">
     <g id="line2d_22">
      <g>
       <use xlink:href="#m6a23e5a934" x="300.020112" y="161.413983" style="stroke: #000000; stroke-width: 0.8"/>
      </g>
     </g>
    </g>
    <g id="ytick_13">
     <g id="line2d_23">
      <g>
       <use xlink:href="#m6a23e5a934" x="300.020112" y="128.605459" style="stroke: #000000; stroke-width: 0.8"/>
      </g>
     </g>
    </g>
    <g id="ytick_14">
     <g id="line2d_24">
      <g>
       <use xlink:href="#m6a23e5a934" x="300.020112" y="95.796936" style="stroke: #000000; stroke-width: 0.8"/>
      </g>
     </g>
    </g>
    <g id="ytick_15">
     <g id="line2d_25">
      <g>
       <use xlink:href="#m6a23e5a934" x="300.020112" y="62.988412" style="stroke: #000000; stroke-width: 0.8"/>
      </g>
     </g>
    </g>
    <g id="ytick_16">
     <g id="line2d_26">
      <g>
       <use xlink:href="#m6a23e5a934" x="300.020112" y="30.179889" style="stroke: #000000; stroke-width: 0.8"/>
      </g>
     </g>
    </g>
   </g>
   <g id="patch_7">
    <path d="M 150.010056 283.352328 
L 150.010056 6.667114 
" style="fill: none; stroke: #000000; stroke-width: 0.8; stroke-linejoin: miter; stroke-linecap: square"/>
   </g>
   <g id="patch_8">
    <path d="M 300.020112 283.352328 
L 300.020112 6.667114 
" style="fill: none; stroke: #000000; stroke-width: 0.8; stroke-linejoin: miter; stroke-linecap: square"/>
   </g>
   <g id="patch_9">
    <path d="M 150.010056 283.352328 
L 300.020112 283.352328 
" style="fill: none; stroke: #000000; stroke-width: 0.8; stroke-linejoin: miter; stroke-linecap: square"/>
   </g>
   <g id="patch_10">
    <path d="M 150.010056 6.667114 
L 300.020112 6.667114 
" style="fill: none; stroke: #000000; stroke-width: 0.8; stroke-linejoin: miter; stroke-linecap: square"/>
   </g>
  </g>
  <g id="axes_3">
   <g id="matplotlib.axis_4">
    <g id="xtick_10">
     <g id="line2d_27">
      <defs>
       <path id="m481fcd4c7c" d="M 0 0 
L 0 2 
" style="stroke: #000000; stroke-width: 0.8"/>
      </defs>
      <g>
       <use xlink:href="#m481fcd4c7c" x="150.010056" y="6.667114" style="stroke: #000000; stroke-width: 0.8"/>
      </g>
     </g>
    </g>
    <g id="xtick_11">
     <g id="line2d_28">
      <g>
       <use xlink:href="#m481fcd4c7c" x="187.51257" y="6.667114" style="stroke: #000000; stroke-width: 0.8"/>
      </g>
     </g>
    </g>
    <g id="xtick_12">
     <g id="line2d_29">
      <g>
       <use xlink:href="#m481fcd4c7c" x="225.015084" y="6.667114" style="stroke: #000000; stroke-width: 0.8"/>
      </g>
     </g>
    </g>
    <g id="xtick_13">
     <g id="line2d_30">
      <g>
       <use xlink:href="#m481fcd4c7c" x="262.517598" y="6.667114" style="stroke: #000000; stroke-width: 0.8"/>
      </g>
     </g>
    </g>
    <g id="xtick_14">
     <g id="line2d_31">
      <g>
       <use xlink:href="#m481fcd4c7c" x="300.020112" y="6.667114" style="stroke: #000000; stroke-width: 0.8"/>
      </g>
     </g>
    </g>
   </g>
   <g id="patch_11">
    <path d="M 150.010056 283.352328 
L 150.010056 6.667114 
" style="fill: none; stroke: #000000; stroke-width: 0.8; stroke-linejoin: miter; stroke-linecap: square"/>
   </g>
   <g id="patch_12">
    <path d="M 300.020112 283.352328 
L 300.020112 6.667114 
" style="fill: none; stroke: #000000; stroke-width: 0.8; stroke-linejoin: miter; stroke-linecap: square"/>
   </g>
   <g id="patch_13">
    <path d="M 150.010056 283.352328 
L 300.020112 283.352328 
" style="fill: none; stroke: #000000; stroke-width: 0.8; stroke-linejoin: miter; stroke-linecap: square"/>
   </g>
   <g id="patch_14">
    <path d="M 150.010056 6.667114 
L 300.020112 6.667114 
" style="fill: none; stroke: #000000; stroke-width: 0.8; stroke-linejoin: miter; stroke-linecap: square"/>
   </g>
   <g id="legend_1">
    <g id="patch_15">
     <path d="M 158.410056 277.352328 
L 225.475056 277.352328 
Q 227.875056 277.352328 227.875056 274.952328 
L 227.875056 242.203578 
Q 227.875056 239.803578 225.475056 239.803578 
L 158.410056 239.803578 
Q 156.010056 239.803578 156.010056 242.203578 
L 156.010056 274.952328 
Q 156.010056 277.352328 158.410056 277.352328 
z
" style="fill: #ffffff; opacity: 0.8; stroke: #cccccc; stroke-linejoin: miter"/>
    </g>
    <g id="patch_16">
     <path d="M 160.810056 253.192953 
L 184.810056 253.192953 
L 184.810056 244.792953 
L 160.810056 244.792953 
z
" style="fill: #0c72b9; stroke: #0c72b9; stroke-linejoin: miter"/>
    </g>
    <g id="text_15">
     <!-- MSP -->
     <g transform="translate(194.410056 253.192953) scale(0.12 -0.12)">
      <defs>
       <path id="ArialMT-4d" d="M 475 0 
L 475 4581 
L 1388 4581 
L 2472 1338 
Q 2622 884 2691 659 
Q 2769 909 2934 1394 
L 4031 4581 
L 4847 4581 
L 4847 0 
L 4263 0 
L 4263 3834 
L 2931 0 
L 2384 0 
L 1059 3900 
L 1059 0 
L 475 0 
z
" transform="scale(0.015625)"/>
       <path id="ArialMT-50" d="M 494 0 
L 494 4581 
L 2222 4581 
Q 2678 4581 2919 4538 
Q 3256 4481 3484 4323 
Q 3713 4166 3852 3881 
Q 3991 3597 3991 3256 
Q 3991 2672 3619 2267 
Q 3247 1863 2275 1863 
L 1100 1863 
L 1100 0 
L 494 0 
z
M 1100 2403 
L 2284 2403 
Q 2872 2403 3119 2622 
Q 3366 2841 3366 3238 
Q 3366 3525 3220 3729 
Q 3075 3934 2838 4000 
Q 2684 4041 2272 4041 
L 1100 4041 
L 1100 2403 
z
" transform="scale(0.015625)"/>
      </defs>
      <use xlink:href="#ArialMT-4d"/>
      <use xlink:href="#ArialMT-53" x="83.300781"/>
      <use xlink:href="#ArialMT-50" x="150"/>
     </g>
    </g>
    <g id="patch_17">
     <path d="M 160.810056 270.167328 
L 184.810056 270.167328 
L 184.810056 261.767328 
L 160.810056 261.767328 
z
" style="fill: #d34249; stroke: #d34249; stroke-linejoin: miter"/>
    </g>
    <g id="text_16">
     <!-- GWP -->
     <g transform="translate(194.410056 270.167328) scale(0.12 -0.12)">
      <defs>
       <path id="ArialMT-47" d="M 2638 1797 
L 2638 2334 
L 4578 2338 
L 4578 638 
Q 4131 281 3656 101 
Q 3181 -78 2681 -78 
Q 2006 -78 1454 211 
Q 903 500 622 1047 
Q 341 1594 341 2269 
Q 341 2938 620 3517 
Q 900 4097 1425 4378 
Q 1950 4659 2634 4659 
Q 3131 4659 3532 4498 
Q 3934 4338 4162 4050 
Q 4391 3763 4509 3300 
L 3963 3150 
Q 3859 3500 3706 3700 
Q 3553 3900 3268 4020 
Q 2984 4141 2638 4141 
Q 2222 4141 1919 4014 
Q 1616 3888 1430 3681 
Q 1244 3475 1141 3228 
Q 966 2803 966 2306 
Q 966 1694 1177 1281 
Q 1388 869 1791 669 
Q 2194 469 2647 469 
Q 3041 469 3416 620 
Q 3791 772 3984 944 
L 3984 1797 
L 2638 1797 
z
" transform="scale(0.015625)"/>
       <path id="ArialMT-57" d="M 1294 0 
L 78 4581 
L 700 4581 
L 1397 1578 
Q 1509 1106 1591 641 
Q 1766 1375 1797 1488 
L 2669 4581 
L 3400 4581 
L 4056 2263 
Q 4303 1400 4413 641 
Q 4500 1075 4641 1638 
L 5359 4581 
L 5969 4581 
L 4713 0 
L 4128 0 
L 3163 3491 
Q 3041 3928 3019 4028 
Q 2947 3713 2884 3491 
L 1913 0 
L 1294 0 
z
" transform="scale(0.015625)"/>
      </defs>
      <use xlink:href="#ArialMT-47"/>
      <use xlink:href="#ArialMT-57" x="77.783203"/>
      <use xlink:href="#ArialMT-50" x="172.167969"/>
     </g>
    </g>
   </g>
  </g>
 </g>
 <defs>
  <clipPath id="pba08dd8255">
   <rect x="150.010056" y="6.667114" width="150.010056" height="276.685214"/>
  </clipPath>
 </defs>
</svg>
