<?xml version="1.0" encoding="utf-8"?>
<svg version="1.1" id="Uploaded to svgrepo.com" width="800px" height="800px" viewBox="0 0 32 32" xmlns="http://www.w3.org/2000/svg">
  <style type="text/css">
	.bentblocks_een{fill:#0B1719;}
</style>
  <g>
    <path class="bentblocks_een" d="M 5.815 6.59 L 5.815 0.973 L 3.773 0.973 L 3.773 3.016 L 2.241 3.016 L 2.241 5.058 L 1.22 5.058 L 1.22 0.973 L 0.709 0.973 L 0.709 7.101 L 6.837 7.101 L 6.837 6.59 L 5.815 6.59 Z M 1.22 6.59 L 1.22 5.569 L 2.241 5.569 L 2.241 6.59 L 1.22 6.59 Z M 2.752 6.59 L 2.752 3.526 L 3.773 3.526 L 3.773 6.59 L 2.752 6.59 Z M 4.283 6.59 L 4.283 1.484 L 5.305 1.484 L 5.305 6.59 L 4.283 6.59 Z" style="fill-opacity: 0.9;"/>
    <path d="M 5.722 9.867 C 5.514 9.867 5.382 9.639 5.486 9.454 C 5.592 9.271 5.854 9.271 5.958 9.454 C 5.982 9.497 5.996 9.544 5.996 9.593 C 5.996 9.744 5.873 9.867 5.722 9.867 Z M 5.177 11.241 C 5.177 11.452 5.405 11.584 5.587 11.479 C 5.769 11.373 5.769 11.109 5.587 11.002 C 5.546 10.978 5.498 10.966 5.451 10.966 C 5.3 10.966 5.177 11.089 5.177 11.241 Z M 2.451 13.438 C 2.451 13.227 2.223 13.095 2.042 13.2 C 1.86 13.306 1.86 13.571 2.042 13.676 C 2.083 13.701 2.13 13.713 2.179 13.713 C 2.33 13.713 2.451 13.59 2.451 13.438 Z M 3.814 12.889 C 3.814 13.101 4.041 13.233 4.223 13.127 C 4.405 13.021 4.405 12.757 4.223 12.651 C 4.183 12.627 4.135 12.614 4.088 12.614 C 3.937 12.614 3.814 12.738 3.814 12.889 Z M 3.814 10.692 C 3.604 10.692 3.473 10.921 3.579 11.103 C 3.683 11.287 3.945 11.287 4.051 11.103 C 4.075 11.061 4.088 11.014 4.088 10.966 C 4.088 10.814 3.965 10.692 3.814 10.692 Z M 0.951 8.905 L 0.678 8.905 L 0.678 14.95 L 6.678 14.95 L 6.678 14.675 L 0.951 14.675 L 0.951 8.905 Z" style=""/>
    <path d="M 5.76 17.758 C 5.55 17.758 5.417 17.53 5.522 17.345 C 5.629 17.162 5.893 17.162 5.998 17.345 C 6.022 17.388 6.036 17.435 6.036 17.484 C 6.036 17.635 5.912 17.758 5.76 17.758 Z M 5.211 19.132 C 5.211 19.343 5.441 19.475 5.624 19.37 C 5.807 19.264 5.807 19 5.624 18.893 C 5.582 18.869 5.534 18.857 5.486 18.857 C 5.334 18.857 5.211 18.98 5.211 19.132 Z M 2.465 21.329 C 2.465 21.118 2.235 20.986 2.052 21.091 C 1.869 21.197 1.869 21.462 2.052 21.567 C 2.093 21.592 2.141 21.604 2.19 21.604 C 2.342 21.604 2.465 21.481 2.465 21.329 Z M 3.838 20.78 C 3.838 20.992 4.067 21.124 4.25 21.018 C 4.433 20.912 4.433 20.648 4.25 20.542 C 4.209 20.518 4.161 20.505 4.113 20.505 C 3.961 20.505 3.838 20.629 3.838 20.78 Z M 3.838 18.583 C 3.626 18.583 3.494 18.812 3.6 18.994 C 3.706 19.178 3.97 19.178 4.076 18.994 C 4.1 18.952 4.113 18.905 4.113 18.857 C 4.113 18.705 3.99 18.583 3.838 18.583 Z M 0.953 16.796 L 0.678 16.796 L 0.678 22.841 L 6.723 22.841 L 6.723 22.566 L 0.953 22.566 L 0.953 16.796 Z" style="fill-opacity: 0.9;"/>
    <path d="M 5.76 25.649 C 5.55 25.649 5.417 25.421 5.522 25.236 C 5.629 25.053 5.893 25.053 5.998 25.236 C 6.022 25.279 6.036 25.326 6.036 25.375 C 6.036 25.526 5.912 25.649 5.76 25.649 Z M 5.211 27.023 C 5.211 27.234 5.441 27.366 5.624 27.261 C 5.807 27.155 5.807 26.891 5.624 26.784 C 5.582 26.76 5.534 26.748 5.486 26.748 C 5.334 26.748 5.211 26.871 5.211 27.023 Z M 2.465 29.22 C 2.465 29.009 2.235 28.877 2.052 28.982 C 1.869 29.088 1.869 29.353 2.052 29.458 C 2.093 29.483 2.141 29.495 2.19 29.495 C 2.342 29.495 2.465 29.372 2.465 29.22 Z M 3.838 28.671 C 3.838 28.883 4.067 29.015 4.25 28.909 C 4.433 28.803 4.433 28.539 4.25 28.433 C 4.209 28.409 4.161 28.396 4.113 28.396 C 3.961 28.396 3.838 28.52 3.838 28.671 Z M 3.838 26.474 C 3.626 26.474 3.494 26.703 3.6 26.885 C 3.706 27.069 3.97 27.069 4.076 26.885 C 4.1 26.843 4.113 26.796 4.113 26.748 C 4.113 26.596 3.99 26.474 3.838 26.474 Z M 0.953 24.687 L 0.678 24.687 L 0.678 30.732 L 6.723 30.732 L 6.723 30.457 L 0.953 30.457 L 0.953 24.687 Z" style="fill-opacity: 0.9;"/>
  </g>
  <g transform="matrix(1, 0, 0, 1, -2.159333, 0.288345)">
    <path class="bentblocks_een" d="M 15.945 14.139 L 15.945 8.522 L 13.903 8.522 L 13.903 10.565 L 12.371 10.565 L 12.371 12.607 L 11.35 12.607 L 11.35 8.522 L 10.839 8.522 L 10.839 14.65 L 16.967 14.65 L 16.967 14.139 L 15.945 14.139 Z M 11.35 14.139 L 11.35 13.118 L 12.371 13.118 L 12.371 14.139 L 11.35 14.139 Z M 12.882 14.139 L 12.882 11.075 L 13.903 11.075 L 13.903 14.139 L 12.882 14.139 Z M 14.413 14.139 L 14.413 9.033 L 15.435 9.033 L 15.435 14.139 L 14.413 14.139 Z" style="fill-opacity: 0.9;"/>
    <path d="M 15.852 17.46 C 15.644 17.46 15.512 17.232 15.616 17.047 C 15.722 16.864 15.984 16.864 16.088 17.047 C 16.112 17.09 16.126 17.137 16.126 17.186 C 16.126 17.337 16.003 17.46 15.852 17.46 Z M 15.307 18.834 C 15.307 19.045 15.535 19.177 15.717 19.072 C 15.899 18.966 15.899 18.702 15.717 18.595 C 15.676 18.571 15.628 18.559 15.581 18.559 C 15.43 18.559 15.307 18.682 15.307 18.834 Z M 12.581 21.031 C 12.581 20.82 12.353 20.688 12.172 20.793 C 11.99 20.899 11.99 21.164 12.172 21.269 C 12.213 21.294 12.26 21.306 12.309 21.306 C 12.46 21.306 12.581 21.183 12.581 21.031 Z M 13.944 20.482 C 13.944 20.694 14.171 20.826 14.353 20.72 C 14.535 20.614 14.535 20.35 14.353 20.244 C 14.313 20.22 14.265 20.207 14.218 20.207 C 14.067 20.207 13.944 20.331 13.944 20.482 Z M 13.944 18.285 C 13.734 18.285 13.603 18.514 13.709 18.696 C 13.813 18.88 14.075 18.88 14.181 18.696 C 14.205 18.654 14.218 18.607 14.218 18.559 C 14.218 18.407 14.095 18.285 13.944 18.285 Z M 11.081 16.498 L 10.808 16.498 L 10.808 22.543 L 16.808 22.543 L 16.808 22.268 L 11.081 22.268 L 11.081 16.498 Z" style=""/>
    <path d="M 15.89 25.395 C 15.68 25.395 15.547 25.167 15.652 24.982 C 15.759 24.799 16.023 24.799 16.128 24.982 C 16.152 25.025 16.166 25.072 16.166 25.121 C 16.166 25.272 16.042 25.395 15.89 25.395 Z M 15.341 26.769 C 15.341 26.98 15.571 27.112 15.754 27.007 C 15.937 26.901 15.937 26.637 15.754 26.53 C 15.712 26.506 15.664 26.494 15.616 26.494 C 15.464 26.494 15.341 26.617 15.341 26.769 Z M 12.595 28.966 C 12.595 28.755 12.365 28.623 12.182 28.728 C 11.999 28.834 11.999 29.099 12.182 29.204 C 12.223 29.229 12.271 29.241 12.32 29.241 C 12.472 29.241 12.595 29.118 12.595 28.966 Z M 13.968 28.417 C 13.968 28.629 14.197 28.761 14.38 28.655 C 14.563 28.549 14.563 28.285 14.38 28.179 C 14.339 28.155 14.291 28.142 14.243 28.142 C 14.091 28.142 13.968 28.266 13.968 28.417 Z M 13.968 26.22 C 13.756 26.22 13.624 26.449 13.73 26.631 C 13.836 26.815 14.1 26.815 14.206 26.631 C 14.23 26.589 14.243 26.542 14.243 26.494 C 14.243 26.342 14.12 26.22 13.968 26.22 Z M 11.083 24.433 L 10.808 24.433 L 10.808 30.478 L 16.853 30.478 L 16.853 30.203 L 11.083 30.203 L 11.083 24.433 Z" style="fill-opacity: 0.9;"/>
    <path d="M 15.921 1.591 C 15.711 1.591 15.578 1.363 15.683 1.178 C 15.79 0.995 16.054 0.995 16.159 1.178 C 16.183 1.221 16.197 1.268 16.197 1.317 C 16.197 1.468 16.073 1.591 15.921 1.591 Z M 15.372 2.965 C 15.372 3.176 15.602 3.308 15.785 3.203 C 15.968 3.097 15.968 2.833 15.785 2.726 C 15.743 2.702 15.695 2.69 15.647 2.69 C 15.495 2.69 15.372 2.813 15.372 2.965 Z M 12.626 5.162 C 12.626 4.951 12.396 4.819 12.213 4.924 C 12.03 5.03 12.03 5.295 12.213 5.4 C 12.254 5.425 12.302 5.437 12.351 5.437 C 12.503 5.437 12.626 5.314 12.626 5.162 Z M 13.999 4.613 C 13.999 4.825 14.228 4.957 14.411 4.851 C 14.594 4.745 14.594 4.481 14.411 4.375 C 14.37 4.351 14.322 4.338 14.274 4.338 C 14.122 4.338 13.999 4.462 13.999 4.613 Z M 13.999 2.416 C 13.787 2.416 13.655 2.645 13.761 2.827 C 13.867 3.011 14.131 3.011 14.237 2.827 C 14.261 2.785 14.274 2.738 14.274 2.69 C 14.274 2.538 14.151 2.416 13.999 2.416 Z M 11.114 0.629 L 10.839 0.629 L 10.839 6.674 L 16.884 6.674 L 16.884 6.399 L 11.114 6.399 L 11.114 0.629 Z" style="fill-opacity: 0.9;"/>
  </g>
  <g transform="matrix(1, 0, 0, 1, -0.210666, 0)">
    <path class="bentblocks_een" d="M 21.936 22.446 L 21.936 16.829 L 19.894 16.829 L 19.894 18.872 L 18.362 18.872 L 18.362 20.914 L 17.341 20.914 L 17.341 16.829 L 16.83 16.829 L 16.83 22.957 L 22.958 22.957 L 22.958 22.446 L 21.936 22.446 Z M 17.341 22.446 L 17.341 21.425 L 18.362 21.425 L 18.362 22.446 L 17.341 22.446 Z M 18.873 22.446 L 18.873 19.382 L 19.894 19.382 L 19.894 22.446 L 18.873 22.446 Z M 20.404 22.446 L 20.404 17.34 L 21.426 17.34 L 21.426 22.446 L 20.404 22.446 Z" style="fill-opacity: 0.9;"/>
    <path d="M 21.874 9.976 C 21.666 9.976 21.534 9.748 21.638 9.563 C 21.744 9.38 22.006 9.38 22.11 9.563 C 22.134 9.606 22.148 9.653 22.148 9.702 C 22.148 9.853 22.025 9.976 21.874 9.976 Z M 21.329 11.35 C 21.329 11.561 21.557 11.693 21.739 11.588 C 21.921 11.482 21.921 11.218 21.739 11.111 C 21.698 11.087 21.65 11.075 21.603 11.075 C 21.452 11.075 21.329 11.198 21.329 11.35 Z M 18.603 13.547 C 18.603 13.336 18.375 13.204 18.194 13.309 C 18.012 13.415 18.012 13.68 18.194 13.785 C 18.235 13.81 18.282 13.822 18.331 13.822 C 18.482 13.822 18.603 13.699 18.603 13.547 Z M 19.966 12.998 C 19.966 13.21 20.193 13.342 20.375 13.236 C 20.557 13.13 20.557 12.866 20.375 12.76 C 20.335 12.736 20.287 12.723 20.24 12.723 C 20.089 12.723 19.966 12.847 19.966 12.998 Z M 19.966 10.801 C 19.756 10.801 19.625 11.03 19.731 11.212 C 19.835 11.396 20.097 11.396 20.203 11.212 C 20.227 11.17 20.24 11.123 20.24 11.075 C 20.24 10.923 20.117 10.801 19.966 10.801 Z M 17.103 9.014 L 16.83 9.014 L 16.83 15.059 L 22.83 15.059 L 22.83 14.784 L 17.103 14.784 L 17.103 9.014 Z" style=""/>
    <path d="M 21.912 2.262 C 21.702 2.262 21.569 2.034 21.674 1.849 C 21.781 1.666 22.045 1.666 22.15 1.849 C 22.174 1.892 22.188 1.939 22.188 1.988 C 22.188 2.139 22.064 2.262 21.912 2.262 Z M 21.363 3.636 C 21.363 3.847 21.593 3.979 21.776 3.874 C 21.959 3.768 21.959 3.504 21.776 3.397 C 21.734 3.373 21.686 3.361 21.638 3.361 C 21.486 3.361 21.363 3.484 21.363 3.636 Z M 18.617 5.833 C 18.617 5.622 18.387 5.49 18.204 5.595 C 18.021 5.701 18.021 5.966 18.204 6.071 C 18.245 6.096 18.293 6.108 18.342 6.108 C 18.494 6.108 18.617 5.985 18.617 5.833 Z M 19.99 5.284 C 19.99 5.496 20.219 5.628 20.402 5.522 C 20.585 5.416 20.585 5.152 20.402 5.046 C 20.361 5.022 20.313 5.009 20.265 5.009 C 20.113 5.009 19.99 5.133 19.99 5.284 Z M 19.99 3.087 C 19.778 3.087 19.646 3.316 19.752 3.498 C 19.858 3.682 20.122 3.682 20.228 3.498 C 20.252 3.456 20.265 3.409 20.265 3.361 C 20.265 3.209 20.142 3.087 19.99 3.087 Z M 17.105 1.3 L 16.83 1.3 L 16.83 7.345 L 22.875 7.345 L 22.875 7.07 L 17.105 7.07 L 17.105 1.3 Z" style="fill-opacity: 0.9;"/>
    <path d="M 21.912 25.758 C 21.702 25.758 21.569 25.53 21.674 25.345 C 21.781 25.162 22.045 25.162 22.15 25.345 C 22.174 25.388 22.188 25.435 22.188 25.484 C 22.188 25.635 22.064 25.758 21.912 25.758 Z M 21.363 27.132 C 21.363 27.343 21.593 27.475 21.776 27.37 C 21.959 27.264 21.959 27 21.776 26.893 C 21.734 26.869 21.686 26.857 21.638 26.857 C 21.486 26.857 21.363 26.98 21.363 27.132 Z M 18.617 29.329 C 18.617 29.118 18.387 28.986 18.204 29.091 C 18.021 29.197 18.021 29.462 18.204 29.567 C 18.245 29.592 18.293 29.604 18.342 29.604 C 18.494 29.604 18.617 29.481 18.617 29.329 Z M 19.99 28.78 C 19.99 28.992 20.219 29.124 20.402 29.018 C 20.585 28.912 20.585 28.648 20.402 28.542 C 20.361 28.518 20.313 28.505 20.265 28.505 C 20.113 28.505 19.99 28.629 19.99 28.78 Z M 19.99 26.583 C 19.778 26.583 19.646 26.812 19.752 26.994 C 19.858 27.178 20.122 27.178 20.228 26.994 C 20.252 26.952 20.265 26.905 20.265 26.857 C 20.265 26.705 20.142 26.583 19.99 26.583 Z M 17.105 24.796 L 16.83 24.796 L 16.83 30.841 L 22.875 30.841 L 22.875 30.566 L 17.105 30.566 L 17.105 24.796 Z" style="fill-opacity: 0.9;"/>
  </g>
  <g>
    <path class="bentblocks_een" d="M 29.665 30.33 L 29.665 24.713 L 27.623 24.713 L 27.623 26.756 L 26.091 26.756 L 26.091 28.798 L 25.07 28.798 L 25.07 24.713 L 24.559 24.713 L 24.559 30.841 L 30.687 30.841 L 30.687 30.33 L 29.665 30.33 Z M 25.07 30.33 L 25.07 29.309 L 26.091 29.309 L 26.091 30.33 L 25.07 30.33 Z M 26.602 30.33 L 26.602 27.266 L 27.623 27.266 L 27.623 30.33 L 26.602 30.33 Z M 28.133 30.33 L 28.133 25.224 L 29.155 25.224 L 29.155 30.33 L 28.133 30.33 Z" style="fill-opacity: 0.9;"/>
    <path d="M 29.603 9.983 C 29.395 9.983 29.263 9.755 29.367 9.57 C 29.473 9.387 29.735 9.387 29.839 9.57 C 29.863 9.613 29.877 9.66 29.877 9.709 C 29.877 9.86 29.754 9.983 29.603 9.983 Z M 29.058 11.357 C 29.058 11.568 29.286 11.7 29.468 11.595 C 29.65 11.489 29.65 11.225 29.468 11.118 C 29.427 11.094 29.379 11.082 29.332 11.082 C 29.181 11.082 29.058 11.205 29.058 11.357 Z M 26.332 13.554 C 26.332 13.343 26.104 13.211 25.923 13.316 C 25.741 13.422 25.741 13.687 25.923 13.792 C 25.964 13.817 26.011 13.829 26.06 13.829 C 26.211 13.829 26.332 13.706 26.332 13.554 Z M 27.695 13.005 C 27.695 13.217 27.922 13.349 28.104 13.243 C 28.286 13.137 28.286 12.873 28.104 12.767 C 28.064 12.743 28.016 12.73 27.969 12.73 C 27.818 12.73 27.695 12.854 27.695 13.005 Z M 27.695 10.808 C 27.485 10.808 27.354 11.037 27.46 11.219 C 27.564 11.403 27.826 11.403 27.932 11.219 C 27.956 11.177 27.969 11.13 27.969 11.082 C 27.969 10.93 27.846 10.808 27.695 10.808 Z M 24.832 9.021 L 24.559 9.021 L 24.559 15.066 L 30.559 15.066 L 30.559 14.791 L 24.832 14.791 L 24.832 9.021 Z" style=""/>
    <path d="M 29.641 17.874 C 29.431 17.874 29.298 17.646 29.403 17.461 C 29.51 17.278 29.774 17.278 29.879 17.461 C 29.903 17.504 29.917 17.551 29.917 17.6 C 29.917 17.751 29.793 17.874 29.641 17.874 Z M 29.092 19.248 C 29.092 19.459 29.322 19.591 29.505 19.486 C 29.688 19.38 29.688 19.116 29.505 19.009 C 29.463 18.985 29.415 18.973 29.367 18.973 C 29.215 18.973 29.092 19.096 29.092 19.248 Z M 26.346 21.445 C 26.346 21.234 26.116 21.102 25.933 21.207 C 25.75 21.313 25.75 21.578 25.933 21.683 C 25.974 21.708 26.022 21.72 26.071 21.72 C 26.223 21.72 26.346 21.597 26.346 21.445 Z M 27.719 20.896 C 27.719 21.108 27.948 21.24 28.131 21.134 C 28.314 21.028 28.314 20.764 28.131 20.658 C 28.09 20.634 28.042 20.621 27.994 20.621 C 27.842 20.621 27.719 20.745 27.719 20.896 Z M 27.719 18.699 C 27.507 18.699 27.375 18.928 27.481 19.11 C 27.587 19.294 27.851 19.294 27.957 19.11 C 27.981 19.068 27.994 19.021 27.994 18.973 C 27.994 18.821 27.871 18.699 27.719 18.699 Z M 24.834 16.912 L 24.559 16.912 L 24.559 22.957 L 30.604 22.957 L 30.604 22.682 L 24.834 22.682 L 24.834 16.912 Z" style="fill-opacity: 0.9;"/>
    <path d="M 29.716 2.262 C 29.506 2.262 29.373 2.034 29.478 1.849 C 29.585 1.666 29.849 1.666 29.954 1.849 C 29.978 1.892 29.992 1.939 29.992 1.988 C 29.992 2.139 29.868 2.262 29.716 2.262 Z M 29.167 3.636 C 29.167 3.847 29.397 3.979 29.58 3.874 C 29.763 3.768 29.763 3.504 29.58 3.397 C 29.538 3.373 29.49 3.361 29.442 3.361 C 29.29 3.361 29.167 3.484 29.167 3.636 Z M 26.421 5.833 C 26.421 5.622 26.191 5.49 26.008 5.595 C 25.825 5.701 25.825 5.966 26.008 6.071 C 26.049 6.096 26.097 6.108 26.146 6.108 C 26.298 6.108 26.421 5.985 26.421 5.833 Z M 27.794 5.284 C 27.794 5.496 28.023 5.628 28.206 5.522 C 28.389 5.416 28.389 5.152 28.206 5.046 C 28.165 5.022 28.117 5.009 28.069 5.009 C 27.917 5.009 27.794 5.133 27.794 5.284 Z M 27.794 3.087 C 27.582 3.087 27.45 3.316 27.556 3.498 C 27.662 3.682 27.926 3.682 28.032 3.498 C 28.056 3.456 28.069 3.409 28.069 3.361 C 28.069 3.209 27.946 3.087 27.794 3.087 Z M 24.909 1.3 L 24.634 1.3 L 24.634 7.345 L 30.679 7.345 L 30.679 7.07 L 24.909 7.07 L 24.909 1.3 Z" style="fill-opacity: 0.9;"/>
  </g>
</svg>