<?xml version="1.0" encoding="iso-8859-1" standalone="yes"?><!-- Uploaded to: SVG Repo, www.svgrepo.com, Generator: SVG Repo Mixer Tools --><svg xmlns="http://www.w3.org/2000/svg" xmlns:xlink="http://www.w3.org/1999/xlink" fill="#000000" height="800px" width="800px" version="1.1" id="Layer_1" viewBox="0 0 490.667 490.667" xml:space="preserve" style="zoom: 1;" visibility="visible"><g><g><path d="M-30.973389,-361.532959 C-103.37838,-361.532959 -180.306366,-339.111938 -180.306366,-297.532959 v192 c0,42.027 75.115,64 149.333,64 s149.333,-21.973 149.333,-64 V-297.532959 C118.360626,-339.111938 41.432648,-361.532959 -30.973389,-361.532959 M97.026642,-105.532944 c0,20.181 -52.565,42.667 -128,42.667 s-128,-22.485 -128,-42.667 v-29.909 c27.883,19.584 78.933,29.909 128,29.909 s100.117,-10.325 128,-29.909 V-105.532944 M97.026642,-169.532944 c0,17.813 -48.704,42.667 -128,42.667 s-128,-24.853 -128,-42.667 v-29.909 c27.883,19.584 78.933,29.909 128,29.909 s100.117,-10.325 128,-29.909 V-169.532944 M97.026642,-233.532944 c0,17.813 -48.704,42.667 -128,42.667 s-128,-24.853 -128,-42.667 V-263.441956 c27.883,19.584 78.933,29.909 128,29.909 s100.117,-10.325 128,-29.909 V-233.532944 M-30.973389,-254.865936 c-79.296,0 -128,-24.853 -128,-42.667 c0,-17.813 48.704,-42.667 128,-42.667 s128,24.853 128,42.667 C97.026642,-279.71994 48.322632,-254.865936 -30.973389,-254.865936 "></path><rect stroke="#000000" x="22.08px" height="390.080261px" y="17.173323px" id="rect1" stroke-width="3px" width="425.040344px" fill="#ffffff" transform=""></rect><circle stroke="#000000" id="circle2" stroke-width="3px" cy="171.733444px" fill="#ffffff" r="3.066666px" cx="151.493439px" transform=""></circle><circle stroke="#000000" id="circle1" stroke-width="3px" cy="104.880066px" fill="#ffffff" r="2.453339px" cx="126.960083px" transform=""></circle></g></g><g><g><path d="M-1274.043945,-1952.205811 l-3.157,-0.533 C-1295.910156,-1955.789795 -1298.705078,-1960.653809 -1298.705078,-1963.277832 c0,-4.245 8.512,-10.667 21.355,-10.667 c12.608,0 20.928,5.995 21.355,10.304 c0.555,5.867 5.739,10.389 11.627,9.6 c5.867,-0.555 10.155,-5.76 9.6,-11.627 c-1.621,-16.896 -19.925,-29.632 -42.603,-29.632 c-23.936,0 -42.688,14.059 -42.688,32 c0,16.704 13.248,27.328 39.403,31.595 l1.728,-10.517 l1.429,11.051 c17.728,2.923 21.44,7.36 21.44,10.56 c0,4.245 -8.512,10.667 -21.355,10.667 c-12.608,0 -20.928,-6.016 -21.355,-10.325 c-0.555,-5.867 -5.611,-10.24 -11.627,-9.6 c-5.867,0.555 -10.155,5.76 -9.6,11.627 C-1318.374023,-1901.346924 -1300.070068,-1888.61084 -1277.393066,-1888.61084 C-1253.457031,-1888.61084 -1234.705078,-1902.669922 -1234.705078,-1920.61084 C-1234.705078,-1937.293945 -1247.932129,-1947.917969 -1274.043945,-1952.205811 "></path></g></g><g><g><path d="M-398.318848,-634.185913 c0,-17.643 -14.357,-32 -32,-32 h-21.333 c-17.643,0 -32,14.357 -32,32 V-591.518921 c0,17.643 14.357,32 32,32 h21.333 c4.928,0 9.536,-1.216 13.696,-3.2 l0.085,0.085 c2.091,2.069 4.821,3.115 7.552,3.115 s5.461,-1.045 7.531,-3.115 c4.16,-4.16 4.16,-10.923 0,-15.083 l-0.085,-0.085 c2.005,-4.16 3.221,-8.789 3.221,-13.717 V-634.185913 M-419.652832,-595.91394 l-3.136,-3.136 c-4.16,-4.16 -10.923,-4.16 -15.083,0 c-4.16,4.16 -4.16,10.923 0,15.083 l3.115,3.115 h-16.896 c-5.888,0 -10.667,-4.779 -10.667,-10.667 v-42.667 c0,-5.888 4.779,-10.667 10.667,-10.667 h21.333 c5.888,0 10.667,4.779 10.667,10.667 V-595.91394 "></path></g></g><g><g><path d="M-3089.049805,-4048.141357 h-32 V-4122.808594 c0,-5.888 -4.779,-10.667 -10.667,-10.667 c-5.888,0 -10.667,4.779 -10.667,10.667 v85.333 c0,5.888 4.779,10.667 10.667,10.667 h42.667 c5.888,0 10.667,-4.779 10.667,-10.667 C-3078.382812,-4043.363281 -3083.161865,-4048.141357 -3089.049805,-4048.141357 "></path></g><text stroke="none" style="outline-style:none;" id="text1" stroke-width="1px" x="215.280106px" text-rendering="geometricPrecision" font-family="Helvetica" fill="#000000" font-size="64px" y="474.720337px" transform="" text-anchor="middle">Scatter Plot</text></g><g><g><path d="M-660.580688,-1728.355469 c-5.291,-2.624 -11.669,-0.491 -14.315,4.779 l-11.797,23.616 l-11.797,-23.595 c-2.645,-5.269 -9.045,-7.403 -14.315,-4.779 c-5.269,2.645 -7.424,9.045 -4.779,14.315 l18.965,37.909 l-18.944,37.867 c-2.624,5.269 -0.491,11.669 4.779,14.315 c1.536,0.768 3.157,1.131 4.757,1.131 c3.904,0 7.659,-2.155 9.557,-5.909 l42.667,-85.333 C-653.177734,-1719.309448 -655.31073,-1725.709473 -660.580688,-1728.355469 "></path></g></g><g><g><path d="M-68.815826,-2979.895264 c-4.331,-1.472 -9.152,0.043 -11.904,3.712 l-23.467,31.275 L-127.652824,-2976.18335 c-2.752,-3.669 -7.509,-5.184 -11.904,-3.712 c-4.352,1.451 -7.296,5.525 -7.296,10.112 v85.333 c0,5.888 4.779,10.667 10.667,10.667 S-125.519829,-2878.562256 -125.519829,-2884.450195 V-2937.783203 l12.8,17.067 c4.032,5.376 13.056,5.376 17.067,0 L-82.852829,-2937.783203 v53.333 c0,5.888 4.779,10.667 10.667,10.667 S-61.519821,-2878.562256 -61.519821,-2884.450195 V-2969.783203 C-61.519821,-2974.370361 -64.463821,-2978.444336 -68.815826,-2979.895264 "></path></g></g><line stroke="#000000" y1="57.040039px" id="line1" x1="74.826714px" stroke-width="3px" y2="372.293579px" x2="74.826714px" transform=""></line><line stroke="#000000" y1="371.680237px" id="line2" x1="74.826714px" stroke-width="3px" y2="372.293579px" x2="410.320282px" transform=""></line><line stroke="#000000" y1="96.906731px" id="line3" x1="76.053383px" stroke-width="3px" y2="96.906731px" x2="81.573387px" transform=""></line><line stroke="#000000" y1="96.906731px" x1="76.053383px" stroke-width="3px" y2="96.906731px" x2="81.573387px" transform="" id="line4"></line></svg>