<?xml version="1.0" encoding="UTF-8" standalone="no"?>
<!DOCTYPE svg PUBLIC "-//W3C//DTD SVG 1.1//EN"
 "http://www.w3.org/Graphics/SVG/1.1/DTD/svg11.dtd">
<!-- Generated by graphviz version 12.1.0 (20240811.2233)
 -->
<!-- Pages: 1 -->
<svg width="254pt" height="441pt"
 viewBox="0.00 0.00 254.47 440.52" xmlns="http://www.w3.org/2000/svg" xmlns:xlink="http://www.w3.org/1999/xlink">
<g id="graph0" class="graph" transform="scale(1 1) rotate(0) translate(4 436.52)">
<g id="clust1" class="cluster">
<title>cluster_standalone</title>
<polygon fill="none" stroke="lightgrey" points="60.47,-8 60.47,-352.64 238.47,-352.64 238.47,-8 60.47,-8"/>
<text text-anchor="middle" x="149.47" y="-335.34" font-family="Times,serif" font-size="14.00">Standalone</text>
<text text-anchor="middle" x="149.47" y="-318.84" font-family="Times,serif" font-size="14.00">Trees &amp; Blobs</text>
</g>
<!-- 6f3fd5c2a9e0be0844be6690e5c72d5b6986f3f6 -->
<g id="node1" class="node">
<title>6f3fd5c2a9e0be0844be6690e5c72d5b6986f3f6</title>
<g id="a_node1"><a xlink:title="author: First Last &lt;first.last.mail.com&gt;&#10;Sat Mar 22 19:36:17 2025 +0100&#10;committer: Nom Prenom &lt;nom.prenom@mail.com&gt;&#10;Sat Mar 22 19:36:17 2025 +0100&#10;&#10;Second commit">
<polygon fill="darkorange" stroke="darkorange" points="139.56,-378.58 89.38,-378.58 89.38,-360.64 139.56,-360.64 139.56,-378.58"/>
<text text-anchor="middle" x="114.47" y="-364.56" font-family="Times,serif" font-size="14.00">6f3fd5c2</text>
</a>
</g>
</g>
<!-- dca3f7dc874da24de0e4d8ad2cb1db72b9ed78bc -->
<g id="node3" class="node">
<title>dca3f7dc874da24de0e4d8ad2cb1db72b9ed78bc</title>
<g id="a_node3"><a xlink:title="author: First Last &lt;first.last.mail.com&gt;&#10;Sat Mar 22 19:36:17 2025 +0100&#10;committer: Nom Prenom &lt;nom.prenom@mail.com&gt;&#10;Sat Mar 22 19:36:17 2025 +0100&#10;&#10;First commit">
<polygon fill="darkorange" stroke="darkorange" points="50.94,-249.7 0,-249.7 0,-231.76 50.94,-231.76 50.94,-249.7"/>
<text text-anchor="middle" x="25.47" y="-235.68" font-family="Times,serif" font-size="14.00">dca3f7dc</text>
</a>
</g>
</g>
<!-- 6f3fd5c2a9e0be0844be6690e5c72d5b6986f3f6&#45;&gt;dca3f7dc874da24de0e4d8ad2cb1db72b9ed78bc -->
<g id="edge7" class="edge">
<title>6f3fd5c2a9e0be0844be6690e5c72d5b6986f3f6&#45;&gt;dca3f7dc874da24de0e4d8ad2cb1db72b9ed78bc</title>
<path fill="none" stroke="#1a1a1a" d="M89.1,-367.18C77.77,-365.27 65.05,-361.19 56.47,-352.64 30.17,-326.44 25.71,-279.9 25.25,-256.31"/>
<polygon fill="#1a1a1a" stroke="#1a1a1a" points="27,-256.54 25.22,-251.55 23.5,-256.56 27,-256.54"/>
</g>
<!-- 0155eb4229851634a0f03eb265b69f5a2d56f341 -->
<g id="node4" class="node">
<title>0155eb4229851634a0f03eb265b69f5a2d56f341</title>
<g id="a_node4"><a xlink:title="0155eb4229851634a0f03eb265b69f5a2d56f341">
<polygon fill="#00688b" stroke="#00688b" points="141.81,-303.64 140.32,-305.63 129.85,-305.63 128.36,-303.64 87.12,-303.64 87.12,-285.7 141.81,-285.7 141.81,-303.64"/>
<text text-anchor="middle" x="114.47" y="-289.62" font-family="Times,serif" font-size="14.00">0155eb42</text>
</a>
</g>
</g>
<!-- 6f3fd5c2a9e0be0844be6690e5c72d5b6986f3f6&#45;&gt;0155eb4229851634a0f03eb265b69f5a2d56f341 -->
<g id="edge6" class="edge">
<title>6f3fd5c2a9e0be0844be6690e5c72d5b6986f3f6&#45;&gt;0155eb4229851634a0f03eb265b69f5a2d56f341</title>
<path fill="none" stroke="#1a1a1a" d="M114.47,-360.24C114.47,-348.04 114.47,-325.19 114.47,-310.21"/>
<polygon fill="#1a1a1a" stroke="#1a1a1a" points="116.22,-310.45 114.47,-305.45 112.72,-310.45 116.22,-310.45"/>
</g>
<!-- c024a6449c2d7426043e97c5be753ca623258a5d -->
<g id="node2" class="node">
<title>c024a6449c2d7426043e97c5be753ca623258a5d</title>
<g id="a_node2"><a xlink:title="author: First Last &lt;first.last.mail.com&gt;&#10;Sat Mar 22 19:36:17 2025 +0100&#10;committer: Nom Prenom &lt;nom.prenom@mail.com&gt;&#10;Sat Mar 22 19:36:17 2025 +0100&#10;&#10;Third commit">
<polygon fill="darkorange" stroke="darkorange" points="168.44,-432.52 114.5,-432.52 114.5,-414.58 168.44,-414.58 168.44,-432.52"/>
<text text-anchor="middle" x="141.47" y="-418.5" font-family="Times,serif" font-size="14.00">c024a644</text>
</a>
</g>
</g>
<!-- c024a6449c2d7426043e97c5be753ca623258a5d&#45;&gt;6f3fd5c2a9e0be0844be6690e5c72d5b6986f3f6 -->
<g id="edge9" class="edge">
<title>c024a6449c2d7426043e97c5be753ca623258a5d&#45;&gt;6f3fd5c2a9e0be0844be6690e5c72d5b6986f3f6</title>
<path fill="none" stroke="#1a1a1a" d="M137.25,-414.43C133.08,-406.4 126.6,-393.95 121.62,-384.37"/>
<polygon fill="#1a1a1a" stroke="#1a1a1a" points="123.31,-383.81 119.45,-380.18 120.2,-385.43 123.31,-383.81"/>
</g>
<!-- 3c4e9cd789d88d8d89c1073707c3585e41b0e614 -->
<g id="node7" class="node">
<title>3c4e9cd789d88d8d89c1073707c3585e41b0e614</title>
<g id="a_node7"><a xlink:title="3c4e9cd789d88d8d89c1073707c3585e41b0e614">
<polygon fill="#00688b" stroke="#00688b" points="207.06,-249.7 205.57,-251.69 195.11,-251.69 193.61,-249.7 153.88,-249.7 153.88,-231.76 207.06,-231.76 207.06,-249.7"/>
<text text-anchor="middle" x="180.47" y="-235.68" font-family="Times,serif" font-size="14.00">3c4e9cd7</text>
</a>
</g>
</g>
<!-- c024a6449c2d7426043e97c5be753ca623258a5d&#45;&gt;3c4e9cd789d88d8d89c1073707c3585e41b0e614 -->
<g id="edge8" class="edge">
<title>c024a6449c2d7426043e97c5be753ca623258a5d&#45;&gt;3c4e9cd789d88d8d89c1073707c3585e41b0e614</title>
<path fill="none" stroke="#1a1a1a" d="M143.25,-414.31C149.36,-385.95 169.6,-292.15 177.38,-256.06"/>
<polygon fill="#1a1a1a" stroke="#1a1a1a" points="179.02,-256.75 178.36,-251.5 175.6,-256.02 179.02,-256.75"/>
</g>
<!-- d8329fc1cc938780ffdd9f94e0d364e0ea74f579 -->
<g id="node8" class="node">
<title>d8329fc1cc938780ffdd9f94e0d364e0ea74f579</title>
<g id="a_node8"><a xlink:title="bak">
<polygon fill="#00688b" stroke="#00688b" points="210.69,-195.76 209.19,-197.75 198.73,-197.75 197.24,-195.76 158.25,-195.76 158.25,-177.82 210.69,-177.82 210.69,-195.76"/>
<text text-anchor="middle" x="184.47" y="-181.74" font-family="Times,serif" font-size="14.00">d8329fc1</text>
</a>
</g>
</g>
<!-- dca3f7dc874da24de0e4d8ad2cb1db72b9ed78bc&#45;&gt;d8329fc1cc938780ffdd9f94e0d364e0ea74f579 -->
<g id="edge11" class="edge">
<title>dca3f7dc874da24de0e4d8ad2cb1db72b9ed78bc&#45;&gt;d8329fc1cc938780ffdd9f94e0d364e0ea74f579</title>
<path fill="none" stroke="#1a1a1a" d="M51.37,-231.27C78.97,-222.25 122.71,-207.96 152.46,-198.25"/>
<polygon fill="#1a1a1a" stroke="#1a1a1a" points="152.93,-199.93 157.14,-196.72 151.85,-196.61 152.93,-199.93"/>
</g>
<!-- 1f7a7a472abf3dd9643fd615f6da379c4acb3e3a -->
<g id="node5" class="node">
<title>1f7a7a472abf3dd9643fd615f6da379c4acb3e3a</title>
<g id="a_node5"><a xlink:title="test.txt">
<polygon fill="gray" stroke="gray" points="137.32,-195.76 88.62,-195.76 88.62,-177.82 140.31,-177.82 140.31,-192.77 137.32,-195.76"/>
<polyline fill="none" stroke="gray" points="137.32,-195.76 137.32,-192.77"/>
<polyline fill="none" stroke="gray" points="140.31,-192.77 137.32,-192.77"/>
<text text-anchor="middle" x="114.47" y="-181.74" font-family="Times,serif" font-size="14.00">1f7a7a47</text>
</a>
</g>
</g>
<!-- 0155eb4229851634a0f03eb265b69f5a2d56f341&#45;&gt;1f7a7a472abf3dd9643fd615f6da379c4acb3e3a -->
<g id="edge1" class="edge">
<title>0155eb4229851634a0f03eb265b69f5a2d56f341&#45;&gt;1f7a7a472abf3dd9643fd615f6da379c4acb3e3a</title>
<path fill="none" stroke="#1a1a1a" d="M114.47,-285.36C114.47,-267.42 114.47,-224.88 114.47,-202.36"/>
<polygon fill="#1a1a1a" stroke="#1a1a1a" points="116.22,-202.57 114.47,-197.57 112.72,-202.57 116.22,-202.57"/>
</g>
<!-- fa49b077972391ad58037050f2a75f74e3671e92 -->
<g id="node6" class="node">
<title>fa49b077972391ad58037050f2a75f74e3671e92</title>
<g id="a_node6"><a xlink:title="new.txt">
<polygon fill="gray" stroke="gray" points="172.7,-33.94 123.25,-33.94 123.25,-16 175.69,-16 175.69,-30.95 172.7,-33.94"/>
<polyline fill="none" stroke="gray" points="172.7,-33.94 172.7,-30.95"/>
<polyline fill="none" stroke="gray" points="175.69,-30.95 172.7,-30.95"/>
<text text-anchor="middle" x="149.47" y="-19.92" font-family="Times,serif" font-size="14.00">fa49b077</text>
</a>
</g>
</g>
<!-- 0155eb4229851634a0f03eb265b69f5a2d56f341&#45;&gt;fa49b077972391ad58037050f2a75f74e3671e92 -->
<g id="edge2" class="edge">
<title>0155eb4229851634a0f03eb265b69f5a2d56f341&#45;&gt;fa49b077972391ad58037050f2a75f74e3671e92</title>
<path fill="none" stroke="#1a1a1a" d="M108.21,-285.4C95.85,-268.21 69.47,-226.94 69.47,-187.79 69.47,-187.79 69.47,-187.79 69.47,-131.85 69.47,-90.73 108.36,-55.47 131.91,-37.9"/>
<polygon fill="#1a1a1a" stroke="#1a1a1a" points="132.73,-39.47 135.75,-35.11 130.67,-36.64 132.73,-39.47"/>
</g>
<!-- 0155eb4229851634a0f03eb265b69f5a2d56f341&#45;&gt;3c4e9cd789d88d8d89c1073707c3585e41b0e614 -->
<!-- 83baae61804e65cc73a7201a7252750c76066a30 -->
<g id="node9" class="node">
<title>83baae61804e65cc73a7201a7252750c76066a30</title>
<g id="a_node9"><a xlink:title="test.txt">
<polygon fill="gray" stroke="gray" points="173.07,-141.82 122.88,-141.82 122.88,-123.88 176.06,-123.88 176.06,-138.83 173.07,-141.82"/>
<polyline fill="none" stroke="gray" points="173.07,-141.82 173.07,-138.83"/>
<polyline fill="none" stroke="gray" points="176.06,-138.83 173.07,-138.83"/>
<text text-anchor="middle" x="149.47" y="-127.8" font-family="Times,serif" font-size="14.00">83baae61</text>
</a>
</g>
</g>
<!-- 1f7a7a472abf3dd9643fd615f6da379c4acb3e3a&#45;&gt;83baae61804e65cc73a7201a7252750c76066a30 -->
<!-- 3c4e9cd789d88d8d89c1073707c3585e41b0e614&#45;&gt;1f7a7a472abf3dd9643fd615f6da379c4acb3e3a -->
<g id="edge3" class="edge">
<title>3c4e9cd789d88d8d89c1073707c3585e41b0e614&#45;&gt;1f7a7a472abf3dd9643fd615f6da379c4acb3e3a</title>
<path fill="none" stroke="#1a1a1a" d="M169.87,-231.38C159.03,-222.85 142.08,-209.52 129.78,-199.84"/>
<polygon fill="#1a1a1a" stroke="#1a1a1a" points="131.03,-198.6 126.02,-196.88 128.87,-201.35 131.03,-198.6"/>
</g>
<!-- 3c4e9cd789d88d8d89c1073707c3585e41b0e614&#45;&gt;fa49b077972391ad58037050f2a75f74e3671e92 -->
<g id="edge5" class="edge">
<title>3c4e9cd789d88d8d89c1073707c3585e41b0e614&#45;&gt;fa49b077972391ad58037050f2a75f74e3671e92</title>
<path fill="none" stroke="#1a1a1a" d="M191.45,-231.35C200.91,-223.38 213.89,-210.45 219.47,-195.76 222.3,-188.31 220.65,-185.71 219.47,-177.82 212.06,-128.23 210.43,-113.99 186.47,-69.94 180.11,-58.26 170.34,-46.82 162.44,-38.54"/>
<polygon fill="#1a1a1a" stroke="#1a1a1a" points="164.08,-37.71 159.33,-35.36 161.58,-40.16 164.08,-37.71"/>
</g>
<!-- 3c4e9cd789d88d8d89c1073707c3585e41b0e614&#45;&gt;d8329fc1cc938780ffdd9f94e0d364e0ea74f579 -->
<g id="edge4" class="edge">
<title>3c4e9cd789d88d8d89c1073707c3585e41b0e614&#45;&gt;d8329fc1cc938780ffdd9f94e0d364e0ea74f579</title>
<path fill="none" stroke="#1a1a1a" d="M176.03,-231.61C174.82,-223.73 175.41,-211.6 177.26,-202.09"/>
<polygon fill="#1a1a1a" stroke="#1a1a1a" points="178.9,-202.76 178.39,-197.49 175.5,-201.93 178.9,-202.76"/>
</g>
<!-- 3c4e9cd789d88d8d89c1073707c3585e41b0e614&#45;&gt;d8329fc1cc938780ffdd9f94e0d364e0ea74f579 -->
<!-- d8329fc1cc938780ffdd9f94e0d364e0ea74f579&#45;&gt;83baae61804e65cc73a7201a7252750c76066a30 -->
<g id="edge10" class="edge">
<title>d8329fc1cc938780ffdd9f94e0d364e0ea74f579&#45;&gt;83baae61804e65cc73a7201a7252750c76066a30</title>
<path fill="none" stroke="#1a1a1a" d="M179,-177.67C173.54,-169.57 165.04,-156.95 158.56,-147.34"/>
<polygon fill="#1a1a1a" stroke="#1a1a1a" points="160.11,-146.5 155.86,-143.34 157.2,-148.46 160.11,-146.5"/>
</g>
<!-- d670460b4b4aece5915caf5c68d12f560a9fe3e4 -->
<g id="node10" class="node">
<title>d670460b4b4aece5915caf5c68d12f560a9fe3e4</title>
<g id="a_node10"><a xlink:title="d670460b4b4aece5915caf5c68d12f560a9fe3e4">
<polygon fill="gray" stroke="gray" points="174.2,-87.88 121.75,-87.88 121.75,-69.94 177.19,-69.94 177.19,-84.89 174.2,-87.88"/>
<polyline fill="none" stroke="gray" points="174.2,-87.88 174.2,-84.89"/>
<polyline fill="none" stroke="gray" points="177.19,-84.89 174.2,-84.89"/>
<text text-anchor="middle" x="149.47" y="-73.86" font-family="Times,serif" font-size="14.00">d670460b</text>
</a>
</g>
</g>
<!-- 83baae61804e65cc73a7201a7252750c76066a30&#45;&gt;d670460b4b4aece5915caf5c68d12f560a9fe3e4 -->
<!-- d670460b4b4aece5915caf5c68d12f560a9fe3e4&#45;&gt;fa49b077972391ad58037050f2a75f74e3671e92 -->
</g>
</svg>
