<?xml version="1.0" encoding="UTF-8" standalone="no"?>
<!DOCTYPE svg PUBLIC "-//W3C//DTD SVG 1.1//EN"
 "http://www.w3.org/Graphics/SVG/1.1/DTD/svg11.dtd">
<!-- Generated by graphviz version 12.1.0 (20240811.2233)
 -->
<!-- Pages: 1 -->
<svg width="213pt" height="407pt"
 viewBox="0.00 0.00 212.56 406.58" xmlns="http://www.w3.org/2000/svg" xmlns:xlink="http://www.w3.org/1999/xlink">
<g id="graph0" class="graph" transform="scale(1 1) rotate(0) translate(4 402.58)">
<g id="clust1" class="cluster">
<title>cluster_standalone</title>
<polygon fill="none" stroke="lightgrey" points="100.34,-315.64 100.34,-390.58 196.34,-390.58 196.34,-315.64 100.34,-315.64"/>
<text text-anchor="middle" x="148.34" y="-373.28" font-family="Times,serif" font-size="14.00">Standalone</text>
<text text-anchor="middle" x="148.34" y="-356.78" font-family="Times,serif" font-size="14.00">Trees &amp; Blobs</text>
</g>
<!-- 0155eb4229851634a0f03eb265b69f5a2d56f341 -->
<g id="node1" class="node">
<title>0155eb4229851634a0f03eb265b69f5a2d56f341</title>
<g id="a_node1"><a xlink:title="0155eb4229851634a0f03eb265b69f5a2d56f341">
<polygon fill="#00688b" stroke="#00688b" points="54.69,-125.82 53.2,-127.81 42.73,-127.81 41.24,-125.82 0,-125.82 0,-107.88 54.69,-107.88 54.69,-125.82"/>
<text text-anchor="middle" x="27.34" y="-111.8" font-family="Times,serif" font-size="14.00">0155eb42</text>
</a>
</g>
</g>
<!-- 1f7a7a472abf3dd9643fd615f6da379c4acb3e3a -->
<g id="node2" class="node">
<title>1f7a7a472abf3dd9643fd615f6da379c4acb3e3a</title>
<g id="a_node2"><a xlink:title="test.txt">
<polygon fill="gray" stroke="gray" points="121.2,-71.88 72.5,-71.88 72.5,-53.94 124.19,-53.94 124.19,-68.89 121.2,-71.88"/>
<polyline fill="none" stroke="gray" points="121.2,-71.88 121.2,-68.89"/>
<polyline fill="none" stroke="gray" points="124.19,-68.89 121.2,-68.89"/>
<text text-anchor="middle" x="98.34" y="-57.86" font-family="Times,serif" font-size="14.00">1f7a7a47</text>
</a>
</g>
</g>
<!-- 0155eb4229851634a0f03eb265b69f5a2d56f341&#45;&gt;1f7a7a472abf3dd9643fd615f6da379c4acb3e3a -->
<g id="edge1" class="edge">
<title>0155eb4229851634a0f03eb265b69f5a2d56f341&#45;&gt;1f7a7a472abf3dd9643fd615f6da379c4acb3e3a</title>
<path fill="none" stroke="#1a1a1a" d="M38.75,-107.5C50.52,-98.9 68.97,-85.4 82.22,-75.7"/>
<polygon fill="#1a1a1a" stroke="#1a1a1a" points="82.98,-77.32 85.98,-72.96 80.91,-74.5 82.98,-77.32"/>
</g>
<!-- fa49b077972391ad58037050f2a75f74e3671e92 -->
<g id="node10" class="node">
<title>fa49b077972391ad58037050f2a75f74e3671e92</title>
<g id="a_node10"><a xlink:title="new.txt">
<polygon fill="gray" stroke="gray" points="51.57,-71.88 2.12,-71.88 2.12,-53.94 54.56,-53.94 54.56,-68.89 51.57,-71.88"/>
<polyline fill="none" stroke="gray" points="51.57,-71.88 51.57,-68.89"/>
<polyline fill="none" stroke="gray" points="54.56,-68.89 51.57,-68.89"/>
<text text-anchor="middle" x="28.34" y="-57.86" font-family="Times,serif" font-size="14.00">fa49b077</text>
</a>
</g>
</g>
<!-- 0155eb4229851634a0f03eb265b69f5a2d56f341&#45;&gt;fa49b077972391ad58037050f2a75f74e3671e92 -->
<g id="edge2" class="edge">
<title>0155eb4229851634a0f03eb265b69f5a2d56f341&#45;&gt;fa49b077972391ad58037050f2a75f74e3671e92</title>
<path fill="none" stroke="#1a1a1a" d="M27.5,-107.73C27.65,-99.93 27.88,-87.95 28.06,-78.49"/>
<polygon fill="#1a1a1a" stroke="#1a1a1a" points="29.81,-78.69 28.16,-73.65 26.31,-78.62 29.81,-78.69"/>
</g>
<!-- 3c4e9cd789d88d8d89c1073707c3585e41b0e614 -->
<g id="node3" class="node">
<title>3c4e9cd789d88d8d89c1073707c3585e41b0e614</title>
<g id="a_node3"><a xlink:title="3c4e9cd789d88d8d89c1073707c3585e41b0e614">
<polygon fill="#00688b" stroke="#00688b" points="125.94,-125.82 124.44,-127.81 113.98,-127.81 112.48,-125.82 72.75,-125.82 72.75,-107.88 125.94,-107.88 125.94,-125.82"/>
<text text-anchor="middle" x="99.34" y="-111.8" font-family="Times,serif" font-size="14.00">3c4e9cd7</text>
</a>
</g>
</g>
<!-- 3c4e9cd789d88d8d89c1073707c3585e41b0e614&#45;&gt;1f7a7a472abf3dd9643fd615f6da379c4acb3e3a -->
<g id="edge3" class="edge">
<title>3c4e9cd789d88d8d89c1073707c3585e41b0e614&#45;&gt;1f7a7a472abf3dd9643fd615f6da379c4acb3e3a</title>
<path fill="none" stroke="#1a1a1a" d="M99.19,-107.73C99.04,-99.93 98.81,-87.95 98.63,-78.49"/>
<polygon fill="#1a1a1a" stroke="#1a1a1a" points="100.38,-78.62 98.53,-73.65 96.88,-78.69 100.38,-78.62"/>
</g>
<!-- d8329fc1cc938780ffdd9f94e0d364e0ea74f579 -->
<g id="node8" class="node">
<title>d8329fc1cc938780ffdd9f94e0d364e0ea74f579</title>
<g id="a_node8"><a xlink:title="bak">
<polygon fill="#00688b" stroke="#00688b" points="194.56,-71.88 193.07,-73.87 182.61,-73.87 181.11,-71.88 142.12,-71.88 142.12,-53.94 194.56,-53.94 194.56,-71.88"/>
<text text-anchor="middle" x="168.34" y="-57.86" font-family="Times,serif" font-size="14.00">d8329fc1</text>
</a>
</g>
</g>
<!-- 3c4e9cd789d88d8d89c1073707c3585e41b0e614&#45;&gt;d8329fc1cc938780ffdd9f94e0d364e0ea74f579 -->
<g id="edge4" class="edge">
<title>3c4e9cd789d88d8d89c1073707c3585e41b0e614&#45;&gt;d8329fc1cc938780ffdd9f94e0d364e0ea74f579</title>
<path fill="none" stroke="#1a1a1a" d="M110.43,-107.5C121.76,-98.97 139.48,-85.64 152.34,-75.96"/>
<polygon fill="#1a1a1a" stroke="#1a1a1a" points="153.36,-77.38 156.3,-72.97 151.26,-74.58 153.36,-77.38"/>
</g>
<!-- 3c4e9cd789d88d8d89c1073707c3585e41b0e614&#45;&gt;fa49b077972391ad58037050f2a75f74e3671e92 -->
<g id="edge5" class="edge">
<title>3c4e9cd789d88d8d89c1073707c3585e41b0e614&#45;&gt;fa49b077972391ad58037050f2a75f74e3671e92</title>
<path fill="none" stroke="#1a1a1a" d="M87.94,-107.5C76.17,-98.9 57.72,-85.4 44.47,-75.7"/>
<polygon fill="#1a1a1a" stroke="#1a1a1a" points="45.78,-74.5 40.71,-72.96 43.71,-77.32 45.78,-74.5"/>
</g>
<!-- 6f3fd5c2a9e0be0844be6690e5c72d5b6986f3f6 -->
<g id="node4" class="node">
<title>6f3fd5c2a9e0be0844be6690e5c72d5b6986f3f6</title>
<g id="a_node4"><a xlink:title="author: First Last &lt;first.last.mail.com&gt;&#10;Sat Mar 22 19:36:17 2025 +0100&#10;committer: Nom Prenom &lt;nom.prenom@mail.com&gt;&#10;Sat Mar 22 19:36:17 2025 +0100&#10;&#10;Second commit">
<polygon fill="#cdad00" stroke="#cdad00" points="71.44,-179.76 21.25,-179.76 21.25,-161.82 71.44,-161.82 71.44,-179.76"/>
<text text-anchor="middle" x="46.34" y="-165.74" font-family="Times,serif" font-size="14.00">6f3fd5c2</text>
</a>
</g>
</g>
<!-- 6f3fd5c2a9e0be0844be6690e5c72d5b6986f3f6&#45;&gt;0155eb4229851634a0f03eb265b69f5a2d56f341 -->
<g id="edge6" class="edge">
<title>6f3fd5c2a9e0be0844be6690e5c72d5b6986f3f6&#45;&gt;0155eb4229851634a0f03eb265b69f5a2d56f341</title>
<path fill="none" stroke="#1a1a1a" d="M43.38,-161.67C40.49,-153.79 36.05,-141.66 32.58,-132.15"/>
<polygon fill="#1a1a1a" stroke="#1a1a1a" points="34.24,-131.6 30.88,-127.5 30.95,-132.8 34.24,-131.6"/>
</g>
<!-- dca3f7dc874da24de0e4d8ad2cb1db72b9ed78bc -->
<g id="node9" class="node">
<title>dca3f7dc874da24de0e4d8ad2cb1db72b9ed78bc</title>
<g id="a_node9"><a xlink:title="author: First Last &lt;first.last.mail.com&gt;&#10;Sat Mar 22 19:36:17 2025 +0100&#10;committer: Nom Prenom &lt;nom.prenom@mail.com&gt;&#10;Sat Mar 22 19:36:17 2025 +0100&#10;&#10;First commit">
<polygon fill="#cdad00" stroke="#cdad00" points="194.81,-125.82 143.88,-125.82 143.88,-107.88 194.81,-107.88 194.81,-125.82"/>
<text text-anchor="middle" x="169.34" y="-111.8" font-family="Times,serif" font-size="14.00">dca3f7dc</text>
</a>
</g>
</g>
<!-- 6f3fd5c2a9e0be0844be6690e5c72d5b6986f3f6&#45;&gt;dca3f7dc874da24de0e4d8ad2cb1db72b9ed78bc -->
<g id="edge7" class="edge">
<title>6f3fd5c2a9e0be0844be6690e5c72d5b6986f3f6&#45;&gt;dca3f7dc874da24de0e4d8ad2cb1db72b9ed78bc</title>
<path fill="none" stroke="#1a1a1a" d="M66.38,-161.33C87.38,-152.46 120.44,-138.5 143.42,-128.8"/>
<polygon fill="#1a1a1a" stroke="#1a1a1a" points="144,-130.45 147.92,-126.9 142.64,-127.23 144,-130.45"/>
</g>
<!-- 83baae61804e65cc73a7201a7252750c76066a30 -->
<g id="node5" class="node">
<title>83baae61804e65cc73a7201a7252750c76066a30</title>
<g id="a_node5"><a xlink:title="test.txt">
<polygon fill="gray" stroke="gray" points="191.95,-17.94 141.75,-17.94 141.75,0 194.94,0 194.94,-14.95 191.95,-17.94"/>
<polyline fill="none" stroke="gray" points="191.95,-17.94 191.95,-14.95"/>
<polyline fill="none" stroke="gray" points="194.94,-14.95 191.95,-14.95"/>
<text text-anchor="middle" x="168.34" y="-3.92" font-family="Times,serif" font-size="14.00">83baae61</text>
</a>
</g>
</g>
<!-- HEAD -->
<g id="node6" class="node">
<title>HEAD</title>
<g id="a_node6"><a xlink:title="main">
<polygon fill="cornflowerblue" stroke="cornflowerblue" points="91.81,-341.58 52.88,-341.58 52.88,-323.64 91.81,-323.64 91.81,-341.58"/>
<text text-anchor="middle" x="72.34" y="-327.56" font-family="Times,serif" font-size="14.00">HEAD</text>
</a>
</g>
</g>
<!-- local&#45;branch&#45;main -->
<g id="node12" class="node">
<title>local&#45;branch&#45;main</title>
<g id="a_node12"><a xlink:title="&#45;&gt; None">
<polygon fill="forestgreen" stroke="forestgreen" points="86.94,-287.64 57.75,-287.64 57.75,-269.7 86.94,-269.7 86.94,-287.64"/>
<text text-anchor="middle" x="72.34" y="-273.62" font-family="Times,serif" font-size="14.00">main</text>
</a>
</g>
</g>
<!-- HEAD&#45;&gt;local&#45;branch&#45;main -->
<g id="edge9" class="edge">
<title>HEAD&#45;&gt;local&#45;branch&#45;main</title>
<path fill="none" stroke="#1a1a1a" d="M72.34,-323.49C72.34,-315.69 72.34,-303.71 72.34,-294.25"/>
<polygon fill="#1a1a1a" stroke="#1a1a1a" points="74.1,-294.41 72.35,-289.41 70.6,-294.41 74.1,-294.41"/>
</g>
<!-- c024a6449c2d7426043e97c5be753ca623258a5d -->
<g id="node7" class="node">
<title>c024a6449c2d7426043e97c5be753ca623258a5d</title>
<g id="a_node7"><a xlink:title="author: First Last &lt;first.last.mail.com&gt;&#10;Sat Mar 22 19:36:17 2025 +0100&#10;committer: Nom Prenom &lt;nom.prenom@mail.com&gt;&#10;Sat Mar 22 19:36:17 2025 +0100&#10;&#10;Third commit">
<polygon fill="#cdad00" stroke="#cdad00" points="99.31,-233.7 45.38,-233.7 45.38,-215.76 99.31,-215.76 99.31,-233.7"/>
<text text-anchor="middle" x="72.34" y="-219.68" font-family="Times,serif" font-size="14.00">c024a644</text>
</a>
</g>
</g>
<!-- c024a6449c2d7426043e97c5be753ca623258a5d&#45;&gt;3c4e9cd789d88d8d89c1073707c3585e41b0e614 -->
<g id="edge10" class="edge">
<title>c024a6449c2d7426043e97c5be753ca623258a5d&#45;&gt;3c4e9cd789d88d8d89c1073707c3585e41b0e614</title>
<path fill="none" stroke="#1a1a1a" d="M74.46,-215.42C79.04,-197.48 89.89,-154.94 95.63,-132.42"/>
<polygon fill="#1a1a1a" stroke="#1a1a1a" points="97.32,-132.86 96.86,-127.59 93.93,-132 97.32,-132.86"/>
</g>
<!-- c024a6449c2d7426043e97c5be753ca623258a5d&#45;&gt;6f3fd5c2a9e0be0844be6690e5c72d5b6986f3f6 -->
<g id="edge11" class="edge">
<title>c024a6449c2d7426043e97c5be753ca623258a5d&#45;&gt;6f3fd5c2a9e0be0844be6690e5c72d5b6986f3f6</title>
<path fill="none" stroke="#1a1a1a" d="M68.28,-215.61C64.3,-207.66 58.15,-195.36 53.37,-185.82"/>
<polygon fill="#1a1a1a" stroke="#1a1a1a" points="54.95,-185.06 51.14,-181.37 51.82,-186.63 54.95,-185.06"/>
</g>
<!-- d8329fc1cc938780ffdd9f94e0d364e0ea74f579&#45;&gt;83baae61804e65cc73a7201a7252750c76066a30 -->
<g id="edge12" class="edge">
<title>d8329fc1cc938780ffdd9f94e0d364e0ea74f579&#45;&gt;83baae61804e65cc73a7201a7252750c76066a30</title>
<path fill="none" stroke="#1a1a1a" d="M168.34,-53.79C168.34,-45.99 168.34,-34.01 168.34,-24.55"/>
<polygon fill="#1a1a1a" stroke="#1a1a1a" points="170.1,-24.71 168.35,-19.71 166.6,-24.71 170.1,-24.71"/>
</g>
<!-- dca3f7dc874da24de0e4d8ad2cb1db72b9ed78bc&#45;&gt;d8329fc1cc938780ffdd9f94e0d364e0ea74f579 -->
<g id="edge13" class="edge">
<title>dca3f7dc874da24de0e4d8ad2cb1db72b9ed78bc&#45;&gt;d8329fc1cc938780ffdd9f94e0d364e0ea74f579</title>
<path fill="none" stroke="#1a1a1a" d="M169.19,-107.73C169.04,-99.93 168.81,-87.95 168.63,-78.49"/>
<polygon fill="#1a1a1a" stroke="#1a1a1a" points="170.38,-78.62 168.53,-73.65 166.88,-78.69 170.38,-78.62"/>
</g>
<!-- 8306adb7d5f21ad253c7053c15282094688ebcf6 -->
<g id="node11" class="node">
<title>8306adb7d5f21ad253c7053c15282094688ebcf6</title>
<g id="a_node11"><a xlink:title="Dimitar Dimitrov &lt;mail.mitko@gmail.com&gt;&#10;Sat Mar 22 19:36:18 2025 +0100&#10;&#10;First commit&#10;">
<polygon fill="pink" stroke="pink" points="204.56,-179.76 134.12,-179.76 134.12,-161.82 204.56,-161.82 204.56,-179.76"/>
<text text-anchor="middle" x="169.34" y="-165.74" font-family="Times,serif" font-size="14.00">first&#45;commit</text>
</a>
</g>
</g>
<!-- 8306adb7d5f21ad253c7053c15282094688ebcf6&#45;&gt;dca3f7dc874da24de0e4d8ad2cb1db72b9ed78bc -->
<g id="edge8" class="edge">
<title>8306adb7d5f21ad253c7053c15282094688ebcf6&#45;&gt;dca3f7dc874da24de0e4d8ad2cb1db72b9ed78bc</title>
<path fill="none" stroke="#1a1a1a" d="M169.34,-161.67C169.34,-153.87 169.34,-141.89 169.34,-132.43"/>
<polygon fill="#1a1a1a" stroke="#1a1a1a" points="171.1,-132.59 169.35,-127.59 167.6,-132.59 171.1,-132.59"/>
</g>
<!-- local&#45;branch&#45;main&#45;&gt;c024a6449c2d7426043e97c5be753ca623258a5d -->
<g id="edge14" class="edge">
<title>local&#45;branch&#45;main&#45;&gt;c024a6449c2d7426043e97c5be753ca623258a5d</title>
<path fill="none" stroke="#1a1a1a" d="M72.34,-269.55C72.34,-261.75 72.34,-249.77 72.34,-240.31"/>
<polygon fill="#1a1a1a" stroke="#1a1a1a" points="74.1,-240.47 72.35,-235.47 70.6,-240.47 74.1,-240.47"/>
</g>
<!-- d670460b4b4aece5915caf5c68d12f560a9fe3e4 -->
<g id="node13" class="node">
<title>d670460b4b4aece5915caf5c68d12f560a9fe3e4</title>
<g id="a_node13"><a xlink:title="d670460b4b4aece5915caf5c68d12f560a9fe3e4">
<polygon fill="gray" stroke="gray" points="173.07,-341.58 120.62,-341.58 120.62,-323.64 176.06,-323.64 176.06,-338.59 173.07,-341.58"/>
<polyline fill="none" stroke="gray" points="173.07,-341.58 173.07,-338.59"/>
<polyline fill="none" stroke="gray" points="176.06,-338.59 173.07,-338.59"/>
<text text-anchor="middle" x="148.34" y="-327.56" font-family="Times,serif" font-size="14.00">d670460b</text>
</a>
</g>
</g>
</g>
</svg>
