<?xml version="1.0" encoding="UTF-8" standalone="no"?>
<!DOCTYPE svg PUBLIC "-//W3C//DTD SVG 1.1//EN"
 "http://www.w3.org/Graphics/SVG/1.1/DTD/svg11.dtd">
<!-- Generated by graphviz version 12.1.0 (20240811.2233)
 -->
<!-- Pages: 1 -->
<svg width="289pt" height="353pt"
 viewBox="0.00 0.00 288.60 352.64" xmlns="http://www.w3.org/2000/svg" xmlns:xlink="http://www.w3.org/1999/xlink">
<g id="graph0" class="graph" transform="scale(1 1) rotate(0) translate(4 348.64)">
<g id="clust1" class="cluster">
<title>cluster_standalone</title>
<polygon fill="none" stroke="lightgrey" points="176.59,-261.7 176.59,-336.64 272.6,-336.64 272.6,-261.7 176.59,-261.7"/>
<text text-anchor="middle" x="224.59" y="-319.34" font-family="Times,serif" font-size="14.00">Standalone</text>
<text text-anchor="middle" x="224.59" y="-302.84" font-family="Times,serif" font-size="14.00">Trees &amp; Blobs</text>
</g>
<!-- 0155eb4229851634a0f03eb265b69f5a2d56f341 -->
<g id="node1" class="node">
<title>0155eb4229851634a0f03eb265b69f5a2d56f341</title>
<g id="a_node1"><a xlink:title="0155eb4229851634a0f03eb265b69f5a2d56f341">
<polygon fill="#00688b" stroke="#00688b" points="85.94,-125.82 84.44,-127.81 73.98,-127.81 72.48,-125.82 31.25,-125.82 31.25,-107.88 85.94,-107.88 85.94,-125.82"/>
<text text-anchor="middle" x="58.59" y="-111.8" font-family="Times,serif" font-size="14.00">0155eb42</text>
</a>
</g>
</g>
<!-- 1f7a7a472abf3dd9643fd615f6da379c4acb3e3a -->
<g id="node2" class="node">
<title>1f7a7a472abf3dd9643fd615f6da379c4acb3e3a</title>
<g id="a_node2"><a xlink:title="test.txt">
<polygon fill="gray" stroke="gray" points="152.45,-71.88 103.75,-71.88 103.75,-53.94 155.44,-53.94 155.44,-68.89 152.45,-71.88"/>
<polyline fill="none" stroke="gray" points="152.45,-71.88 152.45,-68.89"/>
<polyline fill="none" stroke="gray" points="155.44,-68.89 152.45,-68.89"/>
<text text-anchor="middle" x="129.59" y="-57.86" font-family="Times,serif" font-size="14.00">1f7a7a47</text>
</a>
</g>
</g>
<!-- 0155eb4229851634a0f03eb265b69f5a2d56f341&#45;&gt;1f7a7a472abf3dd9643fd615f6da379c4acb3e3a -->
<g id="edge1" class="edge">
<title>0155eb4229851634a0f03eb265b69f5a2d56f341&#45;&gt;1f7a7a472abf3dd9643fd615f6da379c4acb3e3a</title>
<path fill="none" stroke="#1a1a1a" d="M70,-107.5C81.77,-98.9 100.22,-85.4 113.47,-75.7"/>
<polygon fill="#1a1a1a" stroke="#1a1a1a" points="114.23,-77.32 117.23,-72.96 112.16,-74.5 114.23,-77.32"/>
</g>
<!-- fa49b077972391ad58037050f2a75f74e3671e92 -->
<g id="node10" class="node">
<title>fa49b077972391ad58037050f2a75f74e3671e92</title>
<g id="a_node10"><a xlink:title="new.txt">
<polygon fill="gray" stroke="gray" points="82.83,-71.88 33.38,-71.88 33.38,-53.94 85.81,-53.94 85.81,-68.89 82.83,-71.88"/>
<polyline fill="none" stroke="gray" points="82.83,-71.88 82.83,-68.89"/>
<polyline fill="none" stroke="gray" points="85.81,-68.89 82.83,-68.89"/>
<text text-anchor="middle" x="59.59" y="-57.86" font-family="Times,serif" font-size="14.00">fa49b077</text>
</a>
</g>
</g>
<!-- 0155eb4229851634a0f03eb265b69f5a2d56f341&#45;&gt;fa49b077972391ad58037050f2a75f74e3671e92 -->
<g id="edge2" class="edge">
<title>0155eb4229851634a0f03eb265b69f5a2d56f341&#45;&gt;fa49b077972391ad58037050f2a75f74e3671e92</title>
<path fill="none" stroke="#1a1a1a" d="M58.75,-107.73C58.9,-99.93 59.13,-87.95 59.31,-78.49"/>
<polygon fill="#1a1a1a" stroke="#1a1a1a" points="61.06,-78.69 59.41,-73.65 57.56,-78.62 61.06,-78.69"/>
</g>
<!-- 3c4e9cd789d88d8d89c1073707c3585e41b0e614 -->
<g id="node3" class="node">
<title>3c4e9cd789d88d8d89c1073707c3585e41b0e614</title>
<g id="a_node3"><a xlink:title="3c4e9cd789d88d8d89c1073707c3585e41b0e614">
<polygon fill="#00688b" stroke="#00688b" points="157.19,-125.82 155.69,-127.81 145.23,-127.81 143.74,-125.82 104,-125.82 104,-107.88 157.19,-107.88 157.19,-125.82"/>
<text text-anchor="middle" x="130.59" y="-111.8" font-family="Times,serif" font-size="14.00">3c4e9cd7</text>
</a>
</g>
</g>
<!-- 3c4e9cd789d88d8d89c1073707c3585e41b0e614&#45;&gt;1f7a7a472abf3dd9643fd615f6da379c4acb3e3a -->
<g id="edge3" class="edge">
<title>3c4e9cd789d88d8d89c1073707c3585e41b0e614&#45;&gt;1f7a7a472abf3dd9643fd615f6da379c4acb3e3a</title>
<path fill="none" stroke="#1a1a1a" d="M130.44,-107.73C130.29,-99.93 130.06,-87.95 129.88,-78.49"/>
<polygon fill="#1a1a1a" stroke="#1a1a1a" points="131.63,-78.62 129.78,-73.65 128.13,-78.69 131.63,-78.62"/>
</g>
<!-- d8329fc1cc938780ffdd9f94e0d364e0ea74f579 -->
<g id="node8" class="node">
<title>d8329fc1cc938780ffdd9f94e0d364e0ea74f579</title>
<g id="a_node8"><a xlink:title="bak">
<polygon fill="#00688b" stroke="#00688b" points="225.81,-71.88 224.32,-73.87 213.86,-73.87 212.36,-71.88 173.38,-71.88 173.38,-53.94 225.81,-53.94 225.81,-71.88"/>
<text text-anchor="middle" x="199.59" y="-57.86" font-family="Times,serif" font-size="14.00">d8329fc1</text>
</a>
</g>
</g>
<!-- 3c4e9cd789d88d8d89c1073707c3585e41b0e614&#45;&gt;d8329fc1cc938780ffdd9f94e0d364e0ea74f579 -->
<g id="edge4" class="edge">
<title>3c4e9cd789d88d8d89c1073707c3585e41b0e614&#45;&gt;d8329fc1cc938780ffdd9f94e0d364e0ea74f579</title>
<path fill="none" stroke="#1a1a1a" d="M141.68,-107.5C153.01,-98.97 170.73,-85.64 183.59,-75.96"/>
<polygon fill="#1a1a1a" stroke="#1a1a1a" points="184.61,-77.38 187.55,-72.97 182.51,-74.58 184.61,-77.38"/>
</g>
<!-- 3c4e9cd789d88d8d89c1073707c3585e41b0e614&#45;&gt;fa49b077972391ad58037050f2a75f74e3671e92 -->
<g id="edge5" class="edge">
<title>3c4e9cd789d88d8d89c1073707c3585e41b0e614&#45;&gt;fa49b077972391ad58037050f2a75f74e3671e92</title>
<path fill="none" stroke="#1a1a1a" d="M119.19,-107.5C107.42,-98.9 88.97,-85.4 75.72,-75.7"/>
<polygon fill="#1a1a1a" stroke="#1a1a1a" points="77.03,-74.5 71.96,-72.96 74.96,-77.32 77.03,-74.5"/>
</g>
<!-- 6f3fd5c2a9e0be0844be6690e5c72d5b6986f3f6 -->
<g id="node4" class="node">
<title>6f3fd5c2a9e0be0844be6690e5c72d5b6986f3f6</title>
<g id="a_node4"><a xlink:title="author: First Last &lt;first.last.mail.com&gt;&#10;Sat Mar 22 19:36:17 2025 +0100&#10;committer: Nom Prenom &lt;nom.prenom@mail.com&gt;&#10;Sat Mar 22 19:36:17 2025 +0100&#10;&#10;Second commit">
<polygon fill="#cdad00" stroke="#cdad00" points="91.69,-179.76 41.5,-179.76 41.5,-161.82 91.69,-161.82 91.69,-179.76"/>
<text text-anchor="middle" x="66.59" y="-165.74" font-family="Times,serif" font-size="14.00">6f3fd5c2</text>
</a>
</g>
</g>
<!-- 6f3fd5c2a9e0be0844be6690e5c72d5b6986f3f6&#45;&gt;0155eb4229851634a0f03eb265b69f5a2d56f341 -->
<g id="edge6" class="edge">
<title>6f3fd5c2a9e0be0844be6690e5c72d5b6986f3f6&#45;&gt;0155eb4229851634a0f03eb265b69f5a2d56f341</title>
<path fill="none" stroke="#1a1a1a" d="M65.34,-161.67C64.14,-153.87 62.3,-141.89 60.84,-132.43"/>
<polygon fill="#1a1a1a" stroke="#1a1a1a" points="62.58,-132.25 60.09,-127.58 59.12,-132.78 62.58,-132.25"/>
</g>
<!-- dca3f7dc874da24de0e4d8ad2cb1db72b9ed78bc -->
<g id="node9" class="node">
<title>dca3f7dc874da24de0e4d8ad2cb1db72b9ed78bc</title>
<g id="a_node9"><a xlink:title="author: First Last &lt;first.last.mail.com&gt;&#10;Sat Mar 22 19:36:17 2025 +0100&#10;committer: Nom Prenom &lt;nom.prenom@mail.com&gt;&#10;Sat Mar 22 19:36:17 2025 +0100&#10;&#10;First commit">
<polygon fill="#cdad00" stroke="#cdad00" points="226.06,-125.82 175.12,-125.82 175.12,-107.88 226.06,-107.88 226.06,-125.82"/>
<text text-anchor="middle" x="200.59" y="-111.8" font-family="Times,serif" font-size="14.00">dca3f7dc</text>
</a>
</g>
</g>
<!-- 6f3fd5c2a9e0be0844be6690e5c72d5b6986f3f6&#45;&gt;dca3f7dc874da24de0e4d8ad2cb1db72b9ed78bc -->
<g id="edge7" class="edge">
<title>6f3fd5c2a9e0be0844be6690e5c72d5b6986f3f6&#45;&gt;dca3f7dc874da24de0e4d8ad2cb1db72b9ed78bc</title>
<path fill="none" stroke="#1a1a1a" d="M88.42,-161.33C111.49,-152.39 147.93,-138.26 172.98,-128.55"/>
<polygon fill="#1a1a1a" stroke="#1a1a1a" points="173.34,-130.29 177.37,-126.85 172.07,-127.03 173.34,-130.29"/>
</g>
<!-- 83baae61804e65cc73a7201a7252750c76066a30 -->
<g id="node5" class="node">
<title>83baae61804e65cc73a7201a7252750c76066a30</title>
<g id="a_node5"><a xlink:title="test.txt">
<polygon fill="gray" stroke="gray" points="223.2,-17.94 173,-17.94 173,0 226.19,0 226.19,-14.95 223.2,-17.94"/>
<polyline fill="none" stroke="gray" points="223.2,-17.94 223.2,-14.95"/>
<polyline fill="none" stroke="gray" points="226.19,-14.95 223.2,-14.95"/>
<text text-anchor="middle" x="199.59" y="-3.92" font-family="Times,serif" font-size="14.00">83baae61</text>
</a>
</g>
</g>
<!-- HEAD -->
<g id="node6" class="node">
<title>HEAD</title>
<g id="a_node6"><a xlink:title="6f3fd5c2a9e0be0844be6690e5c72d5b6986f3f6">
<polygon fill="cornflowerblue" stroke="black" points="86.06,-233.7 47.12,-233.7 47.12,-215.76 86.06,-215.76 86.06,-233.7"/>
<text text-anchor="middle" x="66.59" y="-219.68" font-family="Times,serif" font-size="14.00">HEAD</text>
</a>
</g>
</g>
<!-- HEAD&#45;&gt;6f3fd5c2a9e0be0844be6690e5c72d5b6986f3f6 -->
<g id="edge9" class="edge">
<title>HEAD&#45;&gt;6f3fd5c2a9e0be0844be6690e5c72d5b6986f3f6</title>
<path fill="none" stroke="#1a1a1a" d="M66.59,-215.61C66.59,-207.81 66.59,-195.83 66.59,-186.37"/>
<polygon fill="#1a1a1a" stroke="#1a1a1a" points="68.35,-186.53 66.6,-181.53 64.85,-186.53 68.35,-186.53"/>
</g>
<!-- c024a6449c2d7426043e97c5be753ca623258a5d -->
<g id="node7" class="node">
<title>c024a6449c2d7426043e97c5be753ca623258a5d</title>
<g id="a_node7"><a xlink:title="author: First Last &lt;first.last.mail.com&gt;&#10;Sat Mar 22 19:36:17 2025 +0100&#10;committer: Nom Prenom &lt;nom.prenom@mail.com&gt;&#10;Sat Mar 22 19:36:17 2025 +0100&#10;&#10;Third commit">
<polygon fill="#cdad00" stroke="#cdad00" points="157.56,-233.7 103.62,-233.7 103.62,-215.76 157.56,-215.76 157.56,-233.7"/>
<text text-anchor="middle" x="130.59" y="-219.68" font-family="Times,serif" font-size="14.00">c024a644</text>
</a>
</g>
</g>
<!-- c024a6449c2d7426043e97c5be753ca623258a5d&#45;&gt;3c4e9cd789d88d8d89c1073707c3585e41b0e614 -->
<g id="edge10" class="edge">
<title>c024a6449c2d7426043e97c5be753ca623258a5d&#45;&gt;3c4e9cd789d88d8d89c1073707c3585e41b0e614</title>
<path fill="none" stroke="#1a1a1a" d="M130.59,-215.42C130.59,-197.48 130.59,-154.94 130.59,-132.42"/>
<polygon fill="#1a1a1a" stroke="#1a1a1a" points="132.35,-132.63 130.6,-127.63 128.85,-132.63 132.35,-132.63"/>
</g>
<!-- c024a6449c2d7426043e97c5be753ca623258a5d&#45;&gt;6f3fd5c2a9e0be0844be6690e5c72d5b6986f3f6 -->
<g id="edge11" class="edge">
<title>c024a6449c2d7426043e97c5be753ca623258a5d&#45;&gt;6f3fd5c2a9e0be0844be6690e5c72d5b6986f3f6</title>
<path fill="none" stroke="#1a1a1a" d="M120.31,-215.38C109.8,-206.85 93.37,-193.52 81.44,-183.84"/>
<polygon fill="#1a1a1a" stroke="#1a1a1a" points="82.8,-182.69 77.82,-180.9 80.6,-185.41 82.8,-182.69"/>
</g>
<!-- d8329fc1cc938780ffdd9f94e0d364e0ea74f579&#45;&gt;83baae61804e65cc73a7201a7252750c76066a30 -->
<g id="edge12" class="edge">
<title>d8329fc1cc938780ffdd9f94e0d364e0ea74f579&#45;&gt;83baae61804e65cc73a7201a7252750c76066a30</title>
<path fill="none" stroke="#1a1a1a" d="M199.59,-53.79C199.59,-45.99 199.59,-34.01 199.59,-24.55"/>
<polygon fill="#1a1a1a" stroke="#1a1a1a" points="201.35,-24.71 199.6,-19.71 197.85,-24.71 201.35,-24.71"/>
</g>
<!-- dca3f7dc874da24de0e4d8ad2cb1db72b9ed78bc&#45;&gt;d8329fc1cc938780ffdd9f94e0d364e0ea74f579 -->
<g id="edge13" class="edge">
<title>dca3f7dc874da24de0e4d8ad2cb1db72b9ed78bc&#45;&gt;d8329fc1cc938780ffdd9f94e0d364e0ea74f579</title>
<path fill="none" stroke="#1a1a1a" d="M200.44,-107.73C200.29,-99.93 200.06,-87.95 199.88,-78.49"/>
<polygon fill="#1a1a1a" stroke="#1a1a1a" points="201.63,-78.62 199.78,-73.65 198.13,-78.69 201.63,-78.62"/>
</g>
<!-- 8306adb7d5f21ad253c7053c15282094688ebcf6 -->
<g id="node11" class="node">
<title>8306adb7d5f21ad253c7053c15282094688ebcf6</title>
<g id="a_node11"><a xlink:title="Dimitar Dimitrov &lt;mail.mitko@gmail.com&gt;&#10;Sat Mar 22 19:36:18 2025 +0100&#10;&#10;First commit&#10;">
<polygon fill="pink" stroke="pink" points="235.81,-179.76 165.38,-179.76 165.38,-161.82 235.81,-161.82 235.81,-179.76"/>
<text text-anchor="middle" x="200.59" y="-165.74" font-family="Times,serif" font-size="14.00">first&#45;commit</text>
</a>
</g>
</g>
<!-- 8306adb7d5f21ad253c7053c15282094688ebcf6&#45;&gt;dca3f7dc874da24de0e4d8ad2cb1db72b9ed78bc -->
<g id="edge8" class="edge">
<title>8306adb7d5f21ad253c7053c15282094688ebcf6&#45;&gt;dca3f7dc874da24de0e4d8ad2cb1db72b9ed78bc</title>
<path fill="none" stroke="#1a1a1a" d="M200.59,-161.67C200.59,-153.87 200.59,-141.89 200.59,-132.43"/>
<polygon fill="#1a1a1a" stroke="#1a1a1a" points="202.35,-132.59 200.6,-127.59 198.85,-132.59 202.35,-132.59"/>
</g>
<!-- local&#45;branch&#45;main -->
<g id="node12" class="node">
<title>local&#45;branch&#45;main</title>
<g id="a_node12"><a xlink:title="&#45;&gt; None">
<polygon fill="forestgreen" stroke="forestgreen" points="29.19,-233.7 0,-233.7 0,-215.76 29.19,-215.76 29.19,-233.7"/>
<text text-anchor="middle" x="14.6" y="-219.68" font-family="Times,serif" font-size="14.00">main</text>
</a>
</g>
</g>
<!-- local&#45;branch&#45;main&#45;&gt;6f3fd5c2a9e0be0844be6690e5c72d5b6986f3f6 -->
<g id="edge14" class="edge">
<title>local&#45;branch&#45;main&#45;&gt;6f3fd5c2a9e0be0844be6690e5c72d5b6986f3f6</title>
<path fill="none" stroke="#1a1a1a" d="M22.72,-215.61C31.07,-207.28 44.18,-194.18 53.89,-184.48"/>
<polygon fill="#1a1a1a" stroke="#1a1a1a" points="54.98,-185.86 57.28,-181.09 52.51,-183.39 54.98,-185.86"/>
</g>
<!-- lwt&#45;third&#45;commit&#45;c024a6449c2d7426043e97c5be753ca623258a5d -->
<g id="node13" class="node">
<title>lwt&#45;third&#45;commit&#45;c024a6449c2d7426043e97c5be753ca623258a5d</title>
<g id="a_node13"><a xlink:title="c024a6449c2d7426043e97c5be753ca623258a5d">
<polygon fill="lightcoral" stroke="lightcoral" points="167.69,-287.64 93.5,-287.64 93.5,-269.7 167.69,-269.7 167.69,-287.64"/>
<text text-anchor="middle" x="130.59" y="-273.62" font-family="Times,serif" font-size="14.00">third&#45;commit</text>
</a>
</g>
</g>
<!-- lwt&#45;third&#45;commit&#45;c024a6449c2d7426043e97c5be753ca623258a5d&#45;&gt;c024a6449c2d7426043e97c5be753ca623258a5d -->
<g id="edge15" class="edge">
<title>lwt&#45;third&#45;commit&#45;c024a6449c2d7426043e97c5be753ca623258a5d&#45;&gt;c024a6449c2d7426043e97c5be753ca623258a5d</title>
<path fill="none" stroke="#1a1a1a" d="M130.59,-269.55C130.59,-261.75 130.59,-249.77 130.59,-240.31"/>
<polygon fill="#1a1a1a" stroke="#1a1a1a" points="132.35,-240.47 130.6,-235.47 128.85,-240.47 132.35,-240.47"/>
</g>
<!-- d670460b4b4aece5915caf5c68d12f560a9fe3e4 -->
<g id="node14" class="node">
<title>d670460b4b4aece5915caf5c68d12f560a9fe3e4</title>
<g id="a_node14"><a xlink:title="d670460b4b4aece5915caf5c68d12f560a9fe3e4">
<polygon fill="gray" stroke="gray" points="249.32,-287.64 196.88,-287.64 196.88,-269.7 252.31,-269.7 252.31,-284.65 249.32,-287.64"/>
<polyline fill="none" stroke="gray" points="249.32,-287.64 249.32,-284.65"/>
<polyline fill="none" stroke="gray" points="252.31,-284.65 249.32,-284.65"/>
<text text-anchor="middle" x="224.59" y="-273.62" font-family="Times,serif" font-size="14.00">d670460b</text>
</a>
</g>
</g>
</g>
</svg>
