<?xml version="1.0" encoding="UTF-8" standalone="no"?>
<!DOCTYPE svg PUBLIC "-//W3C//DTD SVG 1.1//EN"
 "http://www.w3.org/Graphics/SVG/1.1/DTD/svg11.dtd">
<!-- Generated by graphviz version 12.1.0 (20240811.2233)
 -->
<!-- Pages: 1 -->
<svg width="196pt" height="188pt"
 viewBox="0.00 0.00 195.81 187.76" xmlns="http://www.w3.org/2000/svg" xmlns:xlink="http://www.w3.org/1999/xlink">
<g id="graph0" class="graph" transform="scale(1 1) rotate(0) translate(4 183.76)">
<!-- 6f3fd5c2a9e0be0844be6690e5c72d5b6986f3f6 -->
<g id="node1" class="node">
<title>6f3fd5c2a9e0be0844be6690e5c72d5b6986f3f6</title>
<g id="a_node1"><a xlink:title="author: First Last &lt;first.last.mail.com&gt;&#10;Sat Mar 22 19:36:17 2025 +0100&#10;committer: Nom Prenom &lt;nom.prenom@mail.com&gt;&#10;Sat Mar 22 19:36:17 2025 +0100&#10;&#10;Second commit">
<polygon fill="#cdad00" stroke="#cdad00" points="138.31,-71.88 88.12,-71.88 88.12,-53.94 138.31,-53.94 138.31,-71.88"/>
<text text-anchor="middle" x="113.22" y="-57.86" font-family="Times,serif" font-size="14.00">6f3fd5c2</text>
</a>
</g>
</g>
<!-- dca3f7dc874da24de0e4d8ad2cb1db72b9ed78bc -->
<g id="node4" class="node">
<title>dca3f7dc874da24de0e4d8ad2cb1db72b9ed78bc</title>
<g id="a_node4"><a xlink:title="author: First Last &lt;first.last.mail.com&gt;&#10;Sat Mar 22 19:36:17 2025 +0100&#10;committer: Nom Prenom &lt;nom.prenom@mail.com&gt;&#10;Sat Mar 22 19:36:17 2025 +0100&#10;&#10;First commit">
<polygon fill="#cdad00" stroke="#cdad00" points="99.69,-17.94 48.75,-17.94 48.75,0 99.69,0 99.69,-17.94"/>
<text text-anchor="middle" x="74.22" y="-3.92" font-family="Times,serif" font-size="14.00">dca3f7dc</text>
</a>
</g>
</g>
<!-- 6f3fd5c2a9e0be0844be6690e5c72d5b6986f3f6&#45;&gt;dca3f7dc874da24de0e4d8ad2cb1db72b9ed78bc -->
<g id="edge1" class="edge">
<title>6f3fd5c2a9e0be0844be6690e5c72d5b6986f3f6&#45;&gt;dca3f7dc874da24de0e4d8ad2cb1db72b9ed78bc</title>
<path fill="none" stroke="#1a1a1a" d="M107.13,-53.79C100.98,-45.61 91.39,-32.84 84.15,-23.19"/>
<polygon fill="#1a1a1a" stroke="#1a1a1a" points="85.71,-22.36 81.31,-19.41 82.91,-24.46 85.71,-22.36"/>
</g>
<!-- HEAD -->
<g id="node2" class="node">
<title>HEAD</title>
<g id="a_node2"><a xlink:title="6f3fd5c2a9e0be0844be6690e5c72d5b6986f3f6">
<polygon fill="cornflowerblue" stroke="black" points="68.69,-125.82 29.75,-125.82 29.75,-107.88 68.69,-107.88 68.69,-125.82"/>
<text text-anchor="middle" x="49.22" y="-111.8" font-family="Times,serif" font-size="14.00">HEAD</text>
</a>
</g>
</g>
<!-- HEAD&#45;&gt;6f3fd5c2a9e0be0844be6690e5c72d5b6986f3f6 -->
<g id="edge3" class="edge">
<title>HEAD&#45;&gt;6f3fd5c2a9e0be0844be6690e5c72d5b6986f3f6</title>
<path fill="none" stroke="#1a1a1a" d="M59.5,-107.5C70.01,-98.97 86.45,-85.64 98.37,-75.96"/>
<polygon fill="#1a1a1a" stroke="#1a1a1a" points="99.22,-77.53 102,-73.02 97.01,-74.81 99.22,-77.53"/>
</g>
<!-- c024a6449c2d7426043e97c5be753ca623258a5d -->
<g id="node3" class="node">
<title>c024a6449c2d7426043e97c5be753ca623258a5d</title>
<g id="a_node3"><a xlink:title="author: First Last &lt;first.last.mail.com&gt;&#10;Sat Mar 22 19:36:17 2025 +0100&#10;committer: Nom Prenom &lt;nom.prenom@mail.com&gt;&#10;Sat Mar 22 19:36:17 2025 +0100&#10;&#10;Third commit">
<polygon fill="#cdad00" stroke="#cdad00" points="140.19,-125.82 86.25,-125.82 86.25,-107.88 140.19,-107.88 140.19,-125.82"/>
<text text-anchor="middle" x="113.22" y="-111.8" font-family="Times,serif" font-size="14.00">c024a644</text>
</a>
</g>
</g>
<!-- c024a6449c2d7426043e97c5be753ca623258a5d&#45;&gt;6f3fd5c2a9e0be0844be6690e5c72d5b6986f3f6 -->
<g id="edge4" class="edge">
<title>c024a6449c2d7426043e97c5be753ca623258a5d&#45;&gt;6f3fd5c2a9e0be0844be6690e5c72d5b6986f3f6</title>
<path fill="none" stroke="#1a1a1a" d="M113.22,-107.73C113.22,-99.93 113.22,-87.95 113.22,-78.49"/>
<polygon fill="#1a1a1a" stroke="#1a1a1a" points="114.97,-78.65 113.22,-73.65 111.47,-78.65 114.97,-78.65"/>
</g>
<!-- 8306adb7d5f21ad253c7053c15282094688ebcf6 -->
<g id="node5" class="node">
<title>8306adb7d5f21ad253c7053c15282094688ebcf6</title>
<g id="a_node5"><a xlink:title="Dimitar Dimitrov &lt;mail.mitko@gmail.com&gt;&#10;Sat Mar 22 19:36:18 2025 +0100&#10;&#10;First commit&#10;">
<polygon fill="pink" stroke="pink" points="70.44,-71.88 0,-71.88 0,-53.94 70.44,-53.94 70.44,-71.88"/>
<text text-anchor="middle" x="35.22" y="-57.86" font-family="Times,serif" font-size="14.00">first&#45;commit</text>
</a>
</g>
</g>
<!-- 8306adb7d5f21ad253c7053c15282094688ebcf6&#45;&gt;dca3f7dc874da24de0e4d8ad2cb1db72b9ed78bc -->
<g id="edge2" class="edge">
<title>8306adb7d5f21ad253c7053c15282094688ebcf6&#45;&gt;dca3f7dc874da24de0e4d8ad2cb1db72b9ed78bc</title>
<path fill="none" stroke="#1a1a1a" d="M41.31,-53.79C47.46,-45.61 57.05,-32.84 64.29,-23.19"/>
<polygon fill="#1a1a1a" stroke="#1a1a1a" points="65.53,-24.46 67.13,-19.41 62.73,-22.36 65.53,-24.46"/>
</g>
<!-- local&#45;branch&#45;main -->
<g id="node6" class="node">
<title>local&#45;branch&#45;main</title>
<g id="a_node6"><a xlink:title="&#45;&gt; None">
<polygon fill="forestgreen" stroke="forestgreen" points="187.81,-125.82 158.62,-125.82 158.62,-107.88 187.81,-107.88 187.81,-125.82"/>
<text text-anchor="middle" x="173.22" y="-111.8" font-family="Times,serif" font-size="14.00">main</text>
</a>
</g>
</g>
<!-- local&#45;branch&#45;main&#45;&gt;6f3fd5c2a9e0be0844be6690e5c72d5b6986f3f6 -->
<g id="edge5" class="edge">
<title>local&#45;branch&#45;main&#45;&gt;6f3fd5c2a9e0be0844be6690e5c72d5b6986f3f6</title>
<path fill="none" stroke="#1a1a1a" d="M163.58,-107.5C153.81,-99.05 138.59,-85.88 127.44,-76.22"/>
<polygon fill="#1a1a1a" stroke="#1a1a1a" points="128.71,-75 123.78,-73.05 126.42,-77.65 128.71,-75"/>
</g>
<!-- lwt&#45;third&#45;commit&#45;c024a6449c2d7426043e97c5be753ca623258a5d -->
<g id="node7" class="node">
<title>lwt&#45;third&#45;commit&#45;c024a6449c2d7426043e97c5be753ca623258a5d</title>
<g id="a_node7"><a xlink:title="c024a6449c2d7426043e97c5be753ca623258a5d">
<polygon fill="lightcoral" stroke="lightcoral" points="150.31,-179.76 76.12,-179.76 76.12,-161.82 150.31,-161.82 150.31,-179.76"/>
<text text-anchor="middle" x="113.22" y="-165.74" font-family="Times,serif" font-size="14.00">third&#45;commit</text>
</a>
</g>
</g>
<!-- lwt&#45;third&#45;commit&#45;c024a6449c2d7426043e97c5be753ca623258a5d&#45;&gt;c024a6449c2d7426043e97c5be753ca623258a5d -->
<g id="edge6" class="edge">
<title>lwt&#45;third&#45;commit&#45;c024a6449c2d7426043e97c5be753ca623258a5d&#45;&gt;c024a6449c2d7426043e97c5be753ca623258a5d</title>
<path fill="none" stroke="#1a1a1a" d="M113.22,-161.67C113.22,-153.87 113.22,-141.89 113.22,-132.43"/>
<polygon fill="#1a1a1a" stroke="#1a1a1a" points="114.97,-132.59 113.22,-127.59 111.47,-132.59 114.97,-132.59"/>
</g>
</g>
</svg>
